<svg xmlns="http://www.w3.org/2000/svg" width="18.9" height="17.554" viewBox="0 0 18.9 17.554"><defs><style>.a{fill:#ff5e3a;}</style></defs><g transform="translate(-0.324 -0.178)"><path class="a" d="M4.272,4.954a2.479,2.479,0,0,1-2.378-1.8H.675a.675.675,0,1,1,0-1.35H1.9a2.47,2.47,0,0,1,4.757,0h11.57a.675.675,0,0,1,0,1.35H6.651A2.48,2.48,0,0,1,4.272,4.954Zm0-3.6A1.125,1.125,0,1,0,5.4,2.477,1.126,1.126,0,0,0,4.275,1.352Z" transform="translate(0.324 0.178)"/><path class="a" d="M9.452,4.945A2.477,2.477,0,0,1,7.02,2.929H.675a.675.675,0,1,1,0-1.35H7.146a2.471,2.471,0,0,1,4.608,0h6.471a.675.675,0,0,1,0,1.35H11.884A2.478,2.478,0,0,1,9.452,4.945Zm0-3.592a1.125,1.125,0,1,0,1.125,1.125A1.126,1.126,0,0,0,9.45,1.354Z" transform="translate(0.324 6.701)"/><path class="a" d="M14.622,4.954a2.479,2.479,0,0,1-2.378-1.8H.675a.675.675,0,1,1,0-1.35H12.249a2.47,2.47,0,0,1,4.756,0h1.22a.675.675,0,0,1,0,1.35H17A2.48,2.48,0,0,1,14.622,4.954Zm0-3.6A1.125,1.125,0,1,0,15.75,2.477,1.126,1.126,0,0,0,14.625,1.352Z" transform="translate(0.324 12.778)"/></g></svg>