<svg xmlns="http://www.w3.org/2000/svg" width="491.431" height="459.017" viewBox="0 0 491.431 459.017">
  <g id="Group_4644" data-name="Group 4644" transform="translate(-466.993 -927.983)">
    <g id="Group_4643" data-name="Group 4643" transform="translate(444.913 894.571)">
      <path id="Path_1100" data-name="Path 1100" d="M67.881,426.714c-23.069-21.507-45.971-67.491-45.8-99.029a116.089,116.089,0,0,1,37.354-84.02c7.112-6.487,15.224-12.294,19.931-20.691,3.412-6.085,4.765-13.085,5.824-19.981,7.267-47.29,4.884-100.624,36.9-136.178,18.913-21,47.424-31.743,75.65-33.209s56.3,5.586,82.706,15.651c16.984,6.473,33.678,14.328,47.748,25.834,19.614,16.039,33.06,38.226,49.943,57.118,22.7,25.408,51.594,44.734,82.278,59.552,10.98,5.3,22.541,10.284,30.885,19.175,7.94,8.46,12.208,19.693,15.3,30.874,17.825,64.411.485,137.424-44.4,186.942Z" transform="translate(0)" fill="#fbebd9" style="mix-blend-mode: normal;isolation: isolate"/>
      <g id="Group_4614" data-name="Group 4614" transform="translate(303.774 314.733)">
        <path id="Path_1101" data-name="Path 1101" d="M290.892,381.819a39.789,39.789,0,0,1-.192-35.688,22.842,22.842,0,0,1,7.866-9.305c3.488-2.18,8.055-2.906,11.773-1.149-.636-5.764-1.047-11.77.973-17.206s7.132-10.138,12.924-9.867c3.919.185,7.467,2.585,9.939,5.631s4.034,6.713,5.565,10.326c1.741-6.235,4.328-12.337,8.463-17.319s9.951-8.766,16.376-9.551,13.382,1.782,17.038,7.125c4.622,6.757,3.2,15.726,3.39,23.91,3.457-4.981,7.908-9.477,13.5-11.831s12.439-2.257,17.358,1.288c4.451,3.206,6.756,8.74,7.29,14.2s-.48,10.936-1.491,16.326l-14.174,42.755-108.342-.312Z" transform="translate(-286.57 -297.552)" fill="#e27148"/>
        <path id="Path_1102" data-name="Path 1102" d="M290.7,345.045a39.789,39.789,0,0,0,.192,35.688l8.254,9.332,108.342.312,14.174-42.755c1.011-5.39,2.026-10.868,1.491-16.326s-2.839-10.992-7.29-14.2a15.881,15.881,0,0,0-8.429-2.855c2.746,8.546-5.333,18.785-13.223,23.065a49.61,49.61,0,0,1-32.438,5.115,30.347,30.347,0,0,1-55.1,17.161C298.064,359.68,289.975,353.627,290.7,345.045Z" transform="translate(-286.57 -296.466)" fill="#e27148" opacity="0.28" style="mix-blend-mode: multiply;isolation: isolate"/>
        <g id="Group_4613" data-name="Group 4613" transform="translate(25.938 9.038)">
          <path id="Path_1103" data-name="Path 1103" d="M351.613,306.038l-2.313,2.7" transform="translate(-308.428 -306.038)" fill="none" stroke="#ca4128" stroke-linecap="round" stroke-linejoin="round" stroke-width="2"/>
          <path id="Path_1104" data-name="Path 1104" d="M350.622,312.085a4.947,4.947,0,0,0-1.717,2.287" transform="translate(-308.453 -305.645)" fill="none" stroke="#ca4128" stroke-linecap="round" stroke-linejoin="round" stroke-width="2"/>
          <path id="Path_1105" data-name="Path 1105" d="M346.005,311.941a4.848,4.848,0,0,0-1.525,2.2" transform="translate(-308.741 -305.654)" fill="none" stroke="#ca4128" stroke-linecap="round" stroke-linejoin="round" stroke-width="2"/>
          <path id="Path_1106" data-name="Path 1106" d="M344.483,318.37a7.329,7.329,0,0,0-1.758,3.042" transform="translate(-308.855 -305.236)" fill="none" stroke="#ca4128" stroke-linecap="round" stroke-linejoin="round" stroke-width="2"/>
          <path id="Path_1107" data-name="Path 1107" d="M315.091,315.089a9.746,9.746,0,0,0-1.028,2.184" transform="translate(-310.72 -305.449)" fill="none" stroke="#ca4128" stroke-linecap="round" stroke-linejoin="round" stroke-width="2"/>
          <path id="Path_1108" data-name="Path 1108" d="M311.574,318.952a17.576,17.576,0,0,0-.65,3.853" transform="translate(-310.924 -305.198)" fill="none" stroke="#ca4128" stroke-linecap="round" stroke-linejoin="round" stroke-width="2"/>
          <path id="Path_1109" data-name="Path 1109" d="M315.448,322.459a10.2,10.2,0,0,0-.448,4.107" transform="translate(-310.662 -304.97)" fill="none" stroke="#ca4128" stroke-linecap="round" stroke-linejoin="round" stroke-width="2"/>
          <path id="Path_1110" data-name="Path 1110" d="M312.061,327.766a12.891,12.891,0,0,0-.049,3.721" transform="translate(-310.861 -304.625)" fill="none" stroke="#ca4128" stroke-linecap="round" stroke-linejoin="round" stroke-width="2"/>
          <path id="Path_1111" data-name="Path 1111" d="M394.61,318.95l-1.928,1.671" transform="translate(-305.606 -305.198)" fill="none" stroke="#ca4128" stroke-linecap="round" stroke-linejoin="round" stroke-width="2"/>
          <path id="Path_1112" data-name="Path 1112" d="M390.026,319.306l-2.056,2.057" transform="translate(-305.912 -305.175)" fill="none" stroke="#ca4128" stroke-linecap="round" stroke-linejoin="round" stroke-width="2"/>
          <path id="Path_1113" data-name="Path 1113" d="M387.855,324.021a9.746,9.746,0,0,1-1.931,1.667" transform="translate(-306.045 -304.868)" fill="none" stroke="#ca4128" stroke-linecap="round" stroke-linejoin="round" stroke-width="2"/>
        </g>
      </g>
      <g id="Group_4615" data-name="Group 4615" transform="translate(92.458 79.188)">
        <path id="Path_1114" data-name="Path 1114" d="M393.924,170.279c-.249-10.767-10.187-20.364-20.956-20.239s-20.481,9.951-20.481,20.72c-4.666-3.5-10.637-5.579-16.39-4.61s-11.048,5.408-12.035,11.158a13.132,13.132,0,0,0-16.113,15.341h85.975Z" transform="translate(-73.88 -71.602)" fill="#fff"/>
        <path id="Path_1115" data-name="Path 1115" d="M88.16,101.653c.312-13.437,12.715-25.415,26.155-25.259s25.561,12.42,25.56,25.86c5.824-4.372,13.275-6.963,20.455-5.753s13.788,6.749,15.02,13.925a16.39,16.39,0,0,1,20.109,19.146H88.16Z" transform="translate(-88.16 -76.393)" fill="#fff"/>
      </g>
      <g id="Group_4616" data-name="Group 4616" transform="translate(369.391 352.127)">
        <path id="Path_1116" data-name="Path 1116" d="M482.428,336.765s-72.3-22.637-134.249,38.436l100.257,25.341S474.6,370.861,482.428,336.765Z" transform="translate(-348.179 -332.662)" fill="#f6dbb2"/>
        <path id="Path_1117" data-name="Path 1117" d="M482.428,336.765s-72.3-22.637-134.249,38.436l100.257,25.341S474.6,370.861,482.428,336.765Z" transform="translate(-348.179 -332.662)" fill="#ebd2ab" opacity="0.77" style="mix-blend-mode: multiply;isolation: isolate"/>
      </g>
      <g id="Group_4618" data-name="Group 4618" transform="translate(99.95 307.131)">
        <path id="Path_1118" data-name="Path 1118" d="M99,382.154h127.1c.749-14.537,1.184-29.571-4.116-43.128s-17.842-25.344-32.4-25.205c-6.051.059-12.49,2.554-15.452,7.83-1.358-6.484-2.772-13.073-5.964-18.878s-8.48-10.816-14.986-12.062c-7.4-1.417-15.127,2.383-19.881,8.223s-6.91,13.409-7.757,20.892a15.456,15.456,0,0,0-26.7-3.386,17.386,17.386,0,0,0-1.587,2.6,20.63,20.63,0,0,0-2.067,9.093Z" transform="translate(-95.194 -290.414)" fill="#b49f00"/>
        <g id="Group_4617" data-name="Group 4617" transform="translate(16.848 5.946)">
          <path id="Path_1119" data-name="Path 1119" d="M155.146,296a8.23,8.23,0,0,1,2,2.845" transform="translate(-108.142 -295.997)" fill="none" stroke="#858a28" stroke-linecap="round" stroke-linejoin="round" stroke-width="1.5"/>
          <path id="Path_1120" data-name="Path 1120" d="M153.893,300.7a7.779,7.779,0,0,1,2,2.516" transform="translate(-108.224 -295.691)" fill="none" stroke="#858a28" stroke-linecap="round" stroke-linejoin="round" stroke-width="1.5"/>
          <path id="Path_1121" data-name="Path 1121" d="M158.731,302.31a5.112,5.112,0,0,1,1.74,3.477" transform="translate(-107.909 -295.586)" fill="none" stroke="#858a28" stroke-linecap="round" stroke-linejoin="round" stroke-width="1.5"/>
          <path id="Path_1122" data-name="Path 1122" d="M158.634,309.016l1.329,2.848" transform="translate(-107.915 -295.15)" fill="none" stroke="#858a28" stroke-linecap="round" stroke-linejoin="round" stroke-width="1.5"/>
          <path id="Path_1123" data-name="Path 1123" d="M163.918,312.338q.425,1.085.851,2.168" transform="translate(-107.572 -294.934)" fill="none" stroke="#858a28" stroke-linecap="round" stroke-linejoin="round" stroke-width="1.5"/>
          <path id="Path_1124" data-name="Path 1124" d="M112.425,312.189a5.856,5.856,0,0,1,2.183,1.317" transform="translate(-110.921 -294.944)" fill="none" stroke="#858a28" stroke-linecap="round" stroke-linejoin="round" stroke-width="1.5"/>
          <path id="Path_1125" data-name="Path 1125" d="M111.013,315.955a5.2,5.2,0,0,1,2.2,1.474" transform="translate(-111.013 -294.699)" fill="none" stroke="#858a28" stroke-linecap="round" stroke-linejoin="round" stroke-width="1.5"/>
          <path id="Path_1126" data-name="Path 1126" d="M117,317.343,119,319.351" transform="translate(-110.624 -294.608)" fill="none" stroke="#858a28" stroke-linecap="round" stroke-linejoin="round" stroke-width="1.5"/>
        </g>
        <path id="Path_1127" data-name="Path 1127" d="M95.194,325.829,99,379.85h127.1c.32-6.21.583-12.511.365-18.749,1.415,1.837-1.161,2.87-3.192,3.99-10.541,5.811-23.363,8.68-34.73,4.726s-20.223-16.08-17.788-27.867a22.991,22.991,0,0,1-43.608-9,19.136,19.136,0,0,1-17.885,6.435C102.737,338.156,97.29,332.135,95.194,325.829Z" transform="translate(-95.194 -288.11)" fill="#b49f00" opacity="0.24" style="mix-blend-mode: multiply;isolation: isolate"/>
      </g>
      <g id="Group_4619" data-name="Group 4619" transform="translate(26.203 113.541)">
        <path id="Path_1128" data-name="Path 1128" d="M85.7,108.649a39.808,39.808,0,0,0-14.617,2.6,37.426,37.426,0,0,0-21.9,23.916c-1.535,5.223-1.919,10.8-4.169,15.761-2.647,5.836-7.61,10.247-11.338,15.459a42.34,42.34,0,0,0-5.994,36.306c1.045,3.453,2.54,6.783,3.182,10.333,1.5,8.306-1.806,16.786-1.211,25.205.856,12.1,9.918,22.5,20.814,27.838s23.385,6.372,35.517,6.237c12.132.135,24.622-.9,35.517-6.237s19.958-15.735,20.813-27.838c.6-8.419-2.713-16.9-1.21-25.205.642-3.55,2.138-6.88,3.182-10.333a42.344,42.344,0,0,0-5.994-36.306c-3.729-5.212-8.692-9.623-11.34-15.459-2.248-4.957-2.633-10.538-4.168-15.761a37.429,37.429,0,0,0-21.9-23.916,39.808,39.808,0,0,0-14.617-2.6" transform="translate(-25.951 -108.648)" fill="#e27148"/>
        <path id="Path_1129" data-name="Path 1129" d="M29.425,235.645c.856,12.1,9.918,22.5,20.814,27.838s23.385,6.372,35.517,6.237c12.132.135,24.622-.9,35.517-6.237s19.958-15.735,20.813-27.838c.6-8.419-2.713-16.9-1.21-25.205.642-3.55,2.138-6.88,3.182-10.333a42.344,42.344,0,0,0-5.994-36.306c-3.729-5.212-8.692-9.623-11.34-15.459-1.544,5.907-3.272,10.862-2.5,16.918,1.139,8.934,4.673,18.558.384,26.478-4.756,8.785-17.144,11.189-21.882,19.985-3.172,5.89-2.068,13.112-3.656,19.61-1.972,8.072-8.2,14.725-15.693,18.32s-16.056,3.614-24.361,3.365C39.608,252.433,32.6,238.524,29.425,235.645Z" transform="translate(-25.726 -106.066)" fill="#e27148" opacity="0.28" style="mix-blend-mode: multiply;isolation: isolate"/>
        <line id="Line_22" data-name="Line 22" y2="209.843" transform="translate(59.148 39.732)" fill="#e27148" stroke="#5d4552" stroke-linecap="round" stroke-linejoin="round" stroke-width="3"/>
        <path id="Path_1130" data-name="Path 1130" d="M82.342,191.529a20.415,20.415,0,0,1-18.932-11.5c-2.117-4.557-2.436-9.723-2.536-14.748a26.5,26.5,0,0,1,.831-8.587" transform="translate(-23.681 -105.523)" fill="none" stroke="#5d4552" stroke-linecap="round" stroke-linejoin="round" stroke-width="3"/>
        <path id="Path_1131" data-name="Path 1131" d="M118.024,172.411a30.722,30.722,0,0,1-36.073,36.936" transform="translate(-22.309 -104.5)" fill="none" stroke="#5d4552" stroke-linecap="round" stroke-linejoin="round" stroke-width="3"/>
        <path id="Path_1132" data-name="Path 1132" d="M84.486,232.348c-9.178,2.041-19.152,1.914-27.563-2.286s-14.849-13.029-14.441-22.421" transform="translate(-24.877 -102.208)" fill="none" stroke="#5d4552" stroke-linecap="round" stroke-linejoin="round" stroke-width="3"/>
        <path id="Path_1133" data-name="Path 1133" d="M115.86,223.474c-.3,4.872-1.075,9.922-3.851,13.936-3.05,4.408-8.2,7.008-13.447,8.089s-10.673.813-16.027.539" transform="translate(-22.271 -101.178)" fill="none" stroke="#5d4552" stroke-linecap="round" stroke-linejoin="round" stroke-width="3"/>
      </g>
      <path id="Path_1134" data-name="Path 1134" d="M33.087,356.937c14.688-13.931,34.993-21.162,55.221-21.955s40.372,4.507,58.729,13.042c12.84,5.97,25.377,13.951,32.822,26-40.024,11.26-80.739,19.8-122.136,23.682,0,0-14.161-18.708-20.55-33.014Z" transform="translate(0.716 19.611)" fill="#efc586" style="mix-blend-mode: normal;isolation: isolate"/>
      <g id="Group_4620" data-name="Group 4620" transform="translate(23.256 389.693)">
        <path id="Path_1135" data-name="Path 1135" d="M379.661,374c74.71,8.428,125.369,24.773,125.369,43.556,0,27.409-107.865,49.627-240.922,49.627S23.184,444.968,23.184,417.559s107.865-49.626,240.923-49.626A1045.641,1045.641,0,0,1,379.661,374" transform="translate(-23.184 -367.933)" fill="#f8e4c4"/>
        <path id="Path_1136" data-name="Path 1136" d="M397.565,376.61c61.305,9,101.285,23.759,101.285,40.445,0,27.409-107.865,49.627-240.923,49.627-24.643,0-49.291-.744-73.88-2.377-17.232-1.143-33.89-1.6-65.857-6.818,35.011-11.8,79-5.89,115.246-8.418,7.07-.493,14.174-1.259,20.947-3.341,7.234-2.224,13.935-5.9,21.05-8.478,27.848-10.1,58.787-2.614,88.226-5.893,14.407-1.605,29.547-6.539,38.063-18.272s6.554-31.424-6.652-37.4" transform="translate(-17.004 -367.429)" fill="#f6dbb2" opacity="0.45" style="mix-blend-mode: multiply;isolation: isolate"/>
      </g>
      <g id="Group_4622" data-name="Group 4622" transform="translate(391.774 104.177)">
        <ellipse id="Ellipse_60" data-name="Ellipse 60" cx="56.664" cy="78.755" rx="56.664" ry="78.755" fill="#fcca43"/>
        <path id="Path_1137" data-name="Path 1137" d="M381.4,227.241C391.795,244.684,407.5,255.8,425.065,255.8c31.294,0,56.664-35.261,56.664-78.755,0-20.46-5.613-39.1-14.816-53.1,0,0,13.355,139.58-85.51,104.362" transform="translate(-368.401 -98.288)" fill="#fde299" style="mix-blend-mode: multiply;isolation: isolate"/>
        <g id="Group_4621" data-name="Group 4621" transform="translate(27.825 26.271)">
          <line id="Line_23" data-name="Line 23" y2="234.932" transform="translate(26.975)" fill="#e27148" stroke="#5d4552" stroke-linecap="round" stroke-linejoin="round" stroke-width="3"/>
          <path id="Path_1138" data-name="Path 1138" d="M421.93,195.088c-9.7.257-19.375-3.3-23.465-8.627-2.625-3.418-3.02-7.291-3.144-11.059" transform="translate(-395.321 -121.211)" fill="none" stroke="#5d4552" stroke-linecap="round" stroke-linejoin="round" stroke-width="3"/>
          <path id="Path_1139" data-name="Path 1139" d="M448.048,181.145A23.039,23.039,0,0,1,421,208.844" transform="translate(-393.651 -120.838)" fill="none" stroke="#5d4552" stroke-linecap="round" stroke-linejoin="round" stroke-width="3"/>
          <path id="Path_1140" data-name="Path 1140" d="M421,171.749c6.257.2,12.5-2.527,15.142-6.6,1.694-2.617,1.949-5.583,2.028-8.467a11.132,11.132,0,0,0-.664-4.93" transform="translate(-393.651 -122.75)" fill="none" stroke="#5d4552" stroke-linecap="round" stroke-linejoin="round" stroke-width="3"/>
          <path id="Path_1141" data-name="Path 1141" d="M405.514,135.076a14.177,14.177,0,0,0,16.648,17.045" transform="translate(-394.68 -123.835)" fill="none" stroke="#5d4552" stroke-linecap="round" stroke-linejoin="round" stroke-width="3"/>
        </g>
      </g>
      <g id="Group_4624" data-name="Group 4624" transform="translate(58.41 321.455)">
        <path id="Path_1142" data-name="Path 1142" d="M59.375,349.914a17.563,17.563,0,0,1-3.05-12.22,4.476,4.476,0,0,1,1.144-2.8c2.449-2.264,6.2,1.6,9.5,1.078a12.349,12.349,0,0,1,.957-5.883c.943-1.773,3.133-3.058,4.991-2.294,2.695,1.109,2.533,5.068,4.411,7.295a63.228,63.228,0,0,1,2.629-23.461c1.083-3.672,3.411-7.964,7.234-7.758,2.851.153,4.868,2.874,5.9,5.534,2.648,6.8,1.644,14.4.6,21.615,1.073-1.814,2.242-3.721,4.12-4.679s4.657-.454,5.374,1.528a5.208,5.208,0,0,1,.026,2.684c-.73,4.024-2.9,13.994-5.026,17.486Z" transform="translate(-56.191 -303.863)" fill="#fcb643"/>
        <path id="Path_1143" data-name="Path 1143" d="M57.278,345.052a17.2,17.2,0,0,0,2.027,3.814l38.812-1.875c2.127-3.492,4.3-13.462,5.026-17.486a5.208,5.208,0,0,0-.026-2.684c-.717-1.982-3.5-2.486-5.374-1.528s-3.047,2.865-4.12,4.679a93.068,93.068,0,0,0,1.06-10.005,45.944,45.944,0,0,1-1.206,5.931,14.354,14.354,0,0,1-2.1,5.016,8.815,8.815,0,0,1-9,3.281,6.244,6.244,0,0,1-3.26,7.275,7.116,7.116,0,0,1-4.01.489,8.546,8.546,0,0,1-3.445-1.341,1.951,1.951,0,0,1-.66,1.636,15.024,15.024,0,0,1-9.165,4.89,5.863,5.863,0,0,1-2.874-.188A2.3,2.3,0,0,1,57.278,345.052Z" transform="translate(-56.12 -302.816)" fill="#fcb643" opacity="0.32" style="mix-blend-mode: multiply;isolation: isolate"/>
        <path id="Path_1144" data-name="Path 1144" d="M92.4,319.967" transform="translate(-53.836 -302.816)" fill="#fcb643" stroke="#222221" stroke-width="1"/>
        <path id="Path_1145" data-name="Path 1145" d="M90.839,309.066" transform="translate(-53.937 -303.525)" fill="#fcb643" stroke="#222221" stroke-width="1"/>
        <g id="Group_4623" data-name="Group 4623" transform="translate(16.21 6.783)">
          <path id="Path_1146" data-name="Path 1146" d="M89.237,310.232a2.052,2.052,0,0,1,.638,2.107" transform="translate(-70.251 -310.232)" fill="none" stroke="#d57637" stroke-linecap="round" stroke-linejoin="round" stroke-width="1"/>
          <path id="Path_1147" data-name="Path 1147" d="M90.778,313.342a8,8,0,0,1,.252,1.274" transform="translate(-70.151 -310.03)" fill="none" stroke="#d57637" stroke-linecap="round" stroke-linejoin="round" stroke-width="1"/>
          <path id="Path_1148" data-name="Path 1148" d="M89.83,314.835q.1.821.2,1.643" transform="translate(-70.213 -309.933)" fill="none" stroke="#d57637" stroke-linecap="round" stroke-linejoin="round" stroke-width="1"/>
          <path id="Path_1149" data-name="Path 1149" d="M90.967,317.52q.018.767.034,1.535" transform="translate(-70.139 -309.758)" fill="none" stroke="#d57637" stroke-linecap="round" stroke-linejoin="round" stroke-width="1"/>
          <path id="Path_1150" data-name="Path 1150" d="M71.808,327.682l.476,1.059" transform="translate(-71.385 -309.097)" fill="none" stroke="#d57637" stroke-linecap="round" stroke-linejoin="round" stroke-width="1"/>
          <path id="Path_1151" data-name="Path 1151" d="M71.411,329.422l.476.9" transform="translate(-71.411 -308.984)" fill="none" stroke="#d57637" stroke-linecap="round" stroke-linejoin="round" stroke-width="1"/>
          <path id="Path_1152" data-name="Path 1152" d="M73.256,330.712a4.256,4.256,0,0,0,.337,1.048" transform="translate(-71.291 -308.9)" fill="none" stroke="#d57637" stroke-linecap="round" stroke-linejoin="round" stroke-width="1"/>
          <path id="Path_1153" data-name="Path 1153" d="M98.606,330.453l-.064.7" transform="translate(-69.646 -308.917)" fill="none" stroke="#d57637" stroke-linecap="round" stroke-linejoin="round" stroke-width="1"/>
          <path id="Path_1154" data-name="Path 1154" d="M97.412,331.649a5.691,5.691,0,0,1-.374,1.774" transform="translate(-69.744 -308.839)" fill="none" stroke="#d57637" stroke-linecap="round" stroke-linejoin="round" stroke-width="1"/>
          <path id="Path_1155" data-name="Path 1155" d="M97.957,334.036l-.191,1.145" transform="translate(-69.697 -308.684)" fill="none" stroke="#d57637" stroke-linecap="round" stroke-linejoin="round" stroke-width="1"/>
          <path id="Path_1156" data-name="Path 1156" d="M96.531,335.947q-.16.6-.318,1.208" transform="translate(-69.798 -308.559)" fill="none" stroke="#d57637" stroke-linecap="round" stroke-linejoin="round" stroke-width="1"/>
        </g>
      </g>
      <g id="Group_4637" data-name="Group 4637" transform="translate(154.44 105.44)">
        <path id="Path_1157" data-name="Path 1157" d="M160.868,401.958c-.838,2.778.744,5.7,2.609,7.921s4.137,4.252,5.071,7a2.162,2.162,0,0,1,.11,1.388c-.374,1.073-1.87,1.107-2.978.862-5.922-1.311-11.121-4.738-16.17-8.1a7.584,7.584,0,0,1-2.647-2.457c-.841-1.539-.515-3.453.1-5.1s2.689-4.23,2.943-5.965Z" transform="translate(-146.356 -81.757)" fill="#222221"/>
        <path id="Path_1158" data-name="Path 1158" d="M184.141,323.043C171.8,343.949,153.31,377.1,148.9,403.337l11.526,4.537c8.4-11.6,29.455-46.526,37.9-58.1Z" transform="translate(-146.191 -86.6)" fill="#91ccb6"/>
        <path id="Path_1159" data-name="Path 1159" d="M155.217,405.826l-6.322-2.489c4.415-26.24,22.909-59.388,35.246-80.294l1.848,3.485S155.642,371.888,155.217,405.826Z" transform="translate(-146.191 -86.6)" fill="#91ccb6" opacity="0.47" style="mix-blend-mode: multiply;isolation: isolate"/>
        <path id="Path_1160" data-name="Path 1160" d="M309.824,406.393c3.989,4.177,10.578,5.448,15.957,7.552a2.527,2.527,0,0,1,1.6,1.281c.38,1.06-.648,2.083-1.632,2.629-3.16,1.753-6.9,2.021-10.513,2.188q-4.122.189-8.247.268c-2.69.052-5.661-.032-7.65-1.844-1.961-1.785-3.092-5.2-3.337-7.987-.023-.271-.039-.535-.047-.79Z" transform="translate(-136.625 -81.179)" fill="#a5b7bd"/>
        <path id="Path_1161" data-name="Path 1161" d="M242.413,397.474c-1.516,2.411-4.768,6.965-4.082,9.729.635,2.557,3.008,4.241,5.226,5.663q3.4,2.179,6.862,4.266c3.029,1.829,6.224,3.647,9.75,3.937,1.1.091,2.491-.183,2.757-1.252a2.468,2.468,0,0,0-.606-1.914c-3.236-4.639-9.091-9.623-10.067-15.194Z" transform="translate(-140.38 -81.759)" fill="#a5b7bd"/>
        <path id="Path_1162" data-name="Path 1162" d="M233.736,247.347c-.114,2.688-.152,5.628,1.5,7.75.314.4.784.8,1.28.676a1.426,1.426,0,0,0,.831-.855,8.982,8.982,0,0,0,.9-4.253c2.052,2.412,3.094,5.779,5.8,7.431.313.191.746.344,1.017.1a.9.9,0,0,0,.2-.717,12.9,12.9,0,0,0-1.274-5.235c.566,1.233,1.245,2.576,2.51,3.067a.93.93,0,0,0,.927-.045.968.968,0,0,0,.267-.533,3.811,3.811,0,0,0-.669-3.124,1.737,1.737,0,0,0,1.5-3.124,1.6,1.6,0,0,0,.926-1.79,3.793,3.793,0,0,0-1.083-1.876c-1.413-1.527-4.33-4.649-6.283-5.367Z" transform="translate(-140.676 -92.038)" fill="#eaa176"/>
        <path id="Path_1163" data-name="Path 1163" d="M212.151,128.708c-1.21-3.3-4.8-9.133-7.544-11.337-5.384-4.327-12.218-1.914-18.02,1.836a17.591,17.591,0,0,0-2.666,2.145c.423-2.253.5-3.836-.259-3.619-10.351,2.969-10.865,20.225-11.1,24.459a28.753,28.753,0,0,1-2.116,9.356c-1.343,3.263-3.293,6.3-4.156,9.72a19.821,19.821,0,0,0,.2,9.711,6.4,6.4,0,0,0,2.336,3.983c.04.026.086.036.127.061a8.845,8.845,0,0,0,2.78,2.358,12.85,12.85,0,0,0,14.637-1.759c2.179-2.031,3.6-4.808,5.94-6.653a10.256,10.256,0,0,1,6.325-2.184c.85,0,5.971,1.638,11.89-4.848C216.833,155.027,217.359,142.923,212.151,128.708Z" transform="translate(-145.093 -100.129)" fill="#1d1d1b"/>
        <path id="Path_1164" data-name="Path 1164" d="M204.457,407.846c.817,3.36,1.2,5.76,1.49,7.489s.961,3.552,2.457,4.467a7.6,7.6,0,0,0,3.519.808c6.053.4,12.268.771,18.054-1.047,1.084-.341,2.363-1.117,2.151-2.233a2.161,2.161,0,0,0-.787-1.147c-2.179-1.915-5.16-2.541-7.885-3.536a10.661,10.661,0,0,1-6-6.925Z" transform="translate(-142.577 -81.222)" fill="#222221"/>
        <path id="Path_1165" data-name="Path 1165" d="M212.545,330.878c6.807,27.226,7.064,61.194,8.536,89.093a29.124,29.124,0,0,1-7.433,1.708,24.909,24.909,0,0,1-6.415.083c-1.687-18.476-5.158-32.359-11.7-56.783-3.523-13.163-10.665-25.08-16-37.62-5.577-13.115-11.178-26.3-14.58-40.138s-4.54-28.485-1.129-42.322a66.553,66.553,0,0,1,8.183-19.335l3.2-6.254H212.3l2,3.265c16.879,30.141,19.089,67.47-1.55,109.166" transform="translate(-145.354 -93.348)" fill="#91ccb6"/>
        <path id="Path_1166" data-name="Path 1166" d="M209.446,262.868c.051-2.6,2.1-4.669,4.053-6.39a9.507,9.507,0,0,1,2.85-1.939c2.526-.94,5.465.431,7.079,2.59s2.163,4.922,2.459,7.6a52.041,52.041,0,0,1,.289,7.309.952.952,0,0,1-1.3,1.093C219.622,272.512,209.308,269.893,209.446,262.868Z" transform="translate(-142.253 -91.076)" fill="none" stroke="#222221" stroke-linecap="round" stroke-linejoin="round" stroke-width="1.5"/>
        <path id="Path_1167" data-name="Path 1167" d="M220.583,254.51s-2.2-.756-1.855-.081c.428.837,1.376,1.516,1.216,2.442a1.6,1.6,0,0,1-1.545,1.222,2.393,2.393,0,0,1-1.836-.944,4.609,4.609,0,0,1,.7,1.454,1.561,1.561,0,0,1-.4,1.493c-.736.648-1.919.117-2.567-.619a1.786,1.786,0,0,1,.124,2.344,1.4,1.4,0,0,1-2.191-.2c.092.8-.969,1.316-1.718,1.03a3.382,3.382,0,0,1-1.571-1.748,21.247,21.247,0,0,1-2.3-6.245,8.74,8.74,0,0,1,.092-3.8,6.39,6.39,0,0,1,3.686-4.135,5.654,5.654,0,0,1,5.036.007C220.715,249.98,221.634,254.512,220.583,254.51Z" transform="translate(-142.445 -91.603)" fill="#eaa176"/>
        <path id="Path_1168" data-name="Path 1168" d="M193.633,256.254c1.814,17.466,12.1,53.845,16.49,70.846q.177.685.349,1.375" transform="translate(-143.281 -90.945)" fill="none" stroke="#222221" stroke-linecap="round" stroke-linejoin="round" stroke-width="1"/>
        <path id="Path_1169" data-name="Path 1169" d="M202.409,257.033l-7.111,9.81" transform="translate(-143.173 -90.894)" fill="none" stroke="#222221" stroke-linecap="round" stroke-linejoin="round" stroke-width="1"/>
        <path id="Path_1170" data-name="Path 1170" d="M196,223.354c7.448,10.47,16.2,21.707,22.034,26.66a1.751,1.751,0,0,1,.506,1.853A2.515,2.515,0,0,1,217.106,253c-.585.22-1.207.344-1.77.617-1.627.789-2.419,2.609-3.265,4.207a4.887,4.887,0,0,1-1.456,1.851,1.919,1.919,0,0,1-2.22.049l-1.677-1.214c-10.2-6.7-23.959-26.059-31.505-35.652-6.686-8.5-12.271-18.349-13.258-29.121-.79-8.633,1.937-17.9,7.912-23.961a16.864,16.864,0,0,1,10.622-4.848,53.758,53.758,0,0,1,6.687-.118l13.72.291h3.4a48.531,48.531,0,0,1,5.356.948c2.128-.34,6.925,2.441,8.671,3.7a17.6,17.6,0,0,1,4.262,4.782,40.7,40.7,0,0,1,6.166,16.2c.748,5,2.916,9.049,3.882,14.013,2.56,13.152,8.182,25.37,14.755,37.141.751,1.344.8,3.167-.547,3.931-.9.512-2.107.478-2.829,1.218a3.97,3.97,0,0,0-.718,1.309A6,6,0,0,1,239.93,252a3.857,3.857,0,0,1-4.068-1.218l-1.751-1.428c-4.75-8.1-8.46-16.954-12.057-25.643-2.16-5.217-5.042-10.534-5.454-16.161l-.129-1.385c-.994,3.028-1.994,6.112-.782,8.95.862,2.017,2.816,3.91,2.183,6.01-.676,2.243-3.652,2.613-6,2.537a66.3,66.3,0,0,0-7.712.029,42.77,42.77,0,0,1-6.828.463c-1.5-.115-2.971-.5-4.47-.639-3.083-.293-6.16.43-9.247.684-3.033.249-5.583.329-8.613.618a5.036,5.036,0,0,1-2.471-.178,3.592,3.592,0,0,1-1.831-3.527,11.335,11.335,0,0,1,.786-3.322" transform="translate(-145.35 -96.896)" fill="#9d7692"/>
        <path id="Path_1171" data-name="Path 1171" d="M179.092,187.2c-.092,3.5-.174,7.06.82,10.413a29.323,29.323,0,0,0,3.3,6.817c2.58,4.227,6.853,10.685,11.673,17.461" transform="translate(-144.23 -95.436)" fill="none" stroke="#222221" stroke-linecap="round" stroke-linejoin="round" stroke-width="1"/>
        <path id="Path_1172" data-name="Path 1172" d="M213.182,204.762c.274-.835.547-1.665.774-2.484a22.514,22.514,0,0,0-1.44-15.688" transform="translate(-142.053 -95.476)" fill="none" stroke="#222221" stroke-width="1"/>
        <path id="Path_1173" data-name="Path 1173" d="M258.053,246.076c8.037,33.987,16.718,74.04,25.73,107.781,1.844,6.9,3.71,13.807,5.022,20.83,2.73,14.615,3.048,29.671,6.887,44.034.191.716.485,2.164.711,2.869a63.048,63.048,0,0,1,15.076-3.342,3.336,3.336,0,0,0,2.352-.854,3.07,3.07,0,0,0,.507-1.909c.162-5.675-8.623-69.278-10.458-85.823,0,0,10.181-67.214,10.46-83.587" transform="translate(-139.091 -91.607)" fill="#5a6279"/>
        <path id="Path_1174" data-name="Path 1174" d="M293.534,266.244c-.3,1.978,8.038,62.107,8.038,62.107" transform="translate(-136.783 -90.295)" fill="none" stroke="#222221" stroke-width="1"/>
        <g id="Group_4625" data-name="Group 4625" transform="translate(100.81 226.043)">
          <path id="Path_1175" data-name="Path 1175" d="M277.283,313.279c-11.528,28.737-24.745,61.684-36.274,90.421l11.637,6.218c13.1-17.008,26.745-37.462,35.84-56.909Z" transform="translate(-241.009 -313.279)" fill="#5a6279"/>
        </g>
        <g id="Group_4626" data-name="Group 4626" transform="translate(100.81 226.043)">
          <path id="Path_1176" data-name="Path 1176" d="M248.387,407.642l-7.378-3.942c11.529-28.737,24.746-61.684,36.274-90.421l2.175,7.711S251.293,378.558,248.387,407.642Z" transform="translate(-241.009 -313.279)" fill="#5a6279" opacity="0.37" style="mix-blend-mode: multiply;isolation: isolate"/>
        </g>
        <path id="Path_1177" data-name="Path 1177" d="M224.9,271.806c28.686,36.936,37.938,87.728,68.7,122.953" transform="translate(-141.247 -89.933)" fill="none" stroke="#222221" stroke-linecap="round" stroke-linejoin="round" stroke-width="1.5"/>
        <path id="Path_1178" data-name="Path 1178" d="M325.933,242.57c1.546,3.508,2.4,9.119,1.135,12.737a3.228,3.228,0,0,1-.992,1.594,1.289,1.289,0,0,1-1.721-.082,1.894,1.894,0,0,1-.218-1.408q.212-1.925.563-3.831c0,1.841-.085,3.892-1.388,5.194a1.71,1.71,0,0,1-1.008.55,1.535,1.535,0,0,1-1.481-1.3,4.468,4.468,0,0,1,.257-2.124,4.476,4.476,0,0,0,.258-2.123c.129,1.8.1,3.939-1.384,4.959a.893.893,0,0,1-.731.193c-.365-.108-.5-.55-.555-.927a9.587,9.587,0,0,1,.732-5.254,17.706,17.706,0,0,1-.749,3.427,1.406,1.406,0,0,1-.41.714,1.009,1.009,0,0,1-1.415-.524,2.918,2.918,0,0,1-.033-1.707l.415-2.274c.088-.484.038-1.171-.449-1.227-.672-.078-.964,1.245-1.6,1.026-.272-.093-.367-.424-.407-.708-.28-1.995.2-5.267,1.377-6.9Z" transform="translate(-135.408 -91.835)" fill="#fac0a2"/>
        <path id="Path_1179" data-name="Path 1179" d="M247.437,248.022a4.146,4.146,0,0,0-1.807,1.444,1.648,1.648,0,0,0,.267,2.122,2.476,2.476,0,0,0,1.96.14,10.748,10.748,0,0,0,2.606-.775,3.634,3.634,0,0,0,1.862-1.9,5.366,5.366,0,0,0,0-2.787,12.925,12.925,0,0,0-1.177-3.968l-7.26-1.337s4.7,4.276,4.751,5.45A1.783,1.783,0,0,1,247.437,248.022Z" transform="translate(-140.012 -91.94)" fill="#fac0a2"/>
        <path id="Path_1180" data-name="Path 1180" d="M237.771,251.767c.206-.992.209-1.517.431-2.868a1.636,1.636,0,0,1,.87-1.174,1.108,1.108,0,0,1,1.276.5,2.859,2.859,0,0,1,.348,1.429,16.1,16.1,0,0,1-.06,2.388,7.414,7.414,0,0,1,.735-3.071,1.216,1.216,0,0,1,.391-.518.886.886,0,0,1,1.116.275,2.227,2.227,0,0,1,.38,1.184,10.6,10.6,0,0,1-.132,3.048,4.051,4.051,0,0,1,1.049-1.8.764.764,0,0,1,.5-.274c.41,0,.575.526.585.936a5.479,5.479,0,0,1-.993,3.451,3.527,3.527,0,0,1-3.179,1.439,5.874,5.874,0,0,1-2.385-1.128,7.4,7.4,0,0,1-1.581-1.209A24.7,24.7,0,0,0,237.771,251.767Z" transform="translate(-140.452 -91.504)" fill="#fac0a2"/>
        <path id="Path_1181" data-name="Path 1181" d="M313.234,210.919l6.314,38.725h12.217c-1.535-27.429-4.428-39.177-7.721-61.513.6,3.091-2.828-15.294-7.565-25.064a18.681,18.681,0,0,0-4.933-6.184c-3.97-3.279-9.335-4.329-14.48-4.529l-23.6-.428a22.1,22.1,0,0,0-12.07,3.423c-6.87,4.366-11.673,11.693-14.255,19.413-7.273,21.75-9.824,48.931-6.4,72.376l12.335.717c-1.09-15.534-.783-33.593,4.237-48.665l.323,3.986c.844,15.593,1.069,28.146.471,43.75-.095,2.465-.183,5.046.9,7.264,8.038,12.654,34.321-3.592,50.523.271,1.6.381,3.358.847,4.818.092,2.465-1.276,2.236-4.812,1.716-7.537a164.793,164.793,0,0,1-2.787-37.3" transform="translate(-140.315 -97.731)" fill="#5f8db5"/>
        <line id="Line_24" data-name="Line 24" x2="10.411" y2="40.993" transform="translate(136.159 228.35)" fill="none" stroke="#222221" stroke-width="1"/>
        <path id="Path_1182" data-name="Path 1182" d="M180.555,325.482s10.04,19.564,12.577,28.61" transform="translate(-144.132 -86.442)" fill="none" stroke="#222221" stroke-linecap="round" stroke-linejoin="round" stroke-width="1"/>
        <g id="Group_4628" data-name="Group 4628" transform="translate(28.933 13.882)">
          <path id="Path_1183" data-name="Path 1183" d="M188.9,157.851c-.315,1.919-.819,5.109-1.675,6.812a2.262,2.262,0,0,1-1.423,1.155s5.129,4.837,11.446,3.54,5.489-3.806,5.489-3.806a25.346,25.346,0,0,1-1.694-6.7Z" transform="translate(-172.723 -111.228)" fill="#eaa176"/>
          <path id="Path_1184" data-name="Path 1184" d="M177.626,141.905c-1.313-12.415,5.164-23.279,14.47-24.263s17.913,8.282,19.226,20.7c0,0,1.694,17.078-6.946,21.948a14.873,14.873,0,0,1-15.414.048,21,21,0,0,1-9.284-10.459,30.892,30.892,0,0,1-2.051-7.972" transform="translate(-173.266 -113.848)" fill="#eaa176"/>
          <path id="Path_1185" data-name="Path 1185" d="M200.3,145.247a.721.721,0,0,0,.121.327.684.684,0,0,0,.458.194,4.392,4.392,0,0,0,2.852-.615c.129-.079.267-.193.258-.342-.007-.131-.125-.225-.231-.3a9.013,9.013,0,0,1-2.974-3.851,1.964,1.964,0,0,0-.3-.58c-1.042-1.189-.785,1.366-.746,1.669Q199.962,143.5,200.3,145.247Z" transform="translate(-171.82 -112.404)" fill="#da806c"/>
          <path id="Path_1186" data-name="Path 1186" d="M195.523,148.142a3.515,3.515,0,0,0,3.786,1.5" transform="translate(-172.091 -111.859)" fill="none" stroke="#1d1d1b" stroke-linecap="round" stroke-linejoin="round" stroke-width="0.5"/>
          <path id="Path_1187" data-name="Path 1187" d="M194.3,135.508a3.719,3.719,0,0,0-3.09,1.775" transform="translate(-172.372 -112.681)" fill="none" stroke="#1d1d1b" stroke-linecap="round" stroke-linejoin="round" stroke-width="0.5"/>
          <path id="Path_1188" data-name="Path 1188" d="M206.064,133.694a3.781,3.781,0,0,0-2.971.1" transform="translate(-171.598 -112.816)" fill="none" stroke="#1d1d1b" stroke-linecap="round" stroke-linejoin="round" stroke-width="0.5"/>
          <path id="Path_1189" data-name="Path 1189" d="M175.415,125.2c-2.549,6.35-2.21,11.791.486,16.686a2.329,2.329,0,0,0,1.119,1.01c1.444.306,1.869-.26,1.869-.26a10.876,10.876,0,0,0,5.348-9.207,11.641,11.641,0,0,0,10.591,2.4,12.084,12.084,0,0,0,8.292-7.342,1.749,1.749,0,0,1,.636,1.214,7.5,7.5,0,0,0,3.21-6.6,8.341,8.341,0,0,0-3.791-6.36,14.123,14.123,0,0,0-4.014-1.659C182.359,110.526,176.388,122.775,175.415,125.2Z" transform="translate(-173.512 -114.075)" fill="#1d1d1b"/>
          <path id="Path_1190" data-name="Path 1190" d="M202.784,124.521" transform="translate(-171.618 -113.396)" fill="none" stroke="#1d1d1b" stroke-width="0.5"/>
          <path id="Path_1191" data-name="Path 1191" d="M193.294,140.33c.122.7.6,1.2,1.058,1.117s.737-.713.615-1.41-.6-1.2-1.058-1.117S193.171,139.632,193.294,140.33Z" transform="translate(-172.238 -112.46)" fill="#1d1d1b"/>
          <path id="Path_1192" data-name="Path 1192" d="M204.071,137.378c.122.7.6,1.2,1.058,1.117s.737-.713.615-1.41-.6-1.2-1.058-1.117S203.948,136.68,204.071,137.378Z" transform="translate(-171.537 -112.652)" fill="#1d1d1b"/>
          <path id="Path_1193" data-name="Path 1193" d="M201.464,158.657s-4.089,1.952-10.1.241c0,0,3.611,3.425,10.082,2.1Z" transform="translate(-172.361 -111.175)" fill="#1d1d1b"/>
          <path id="Path_1194" data-name="Path 1194" d="M179.87,140.3,181,147.7a5.628,5.628,0,0,1-5.674-.053,4.708,4.708,0,0,1-1.651-4.883,3.162,3.162,0,0,1,2.705-2.411,13.9,13.9,0,0,1,3.487-.055" transform="translate(-173.522 -112.375)" fill="#eaa176"/>
          <g id="Group_4627" data-name="Group 4627" transform="translate(2.345 30.301)">
            <path id="Path_1195" data-name="Path 1195" d="M175.724,142.625a3.272,3.272,0,0,1,2.476.344,2.818,2.818,0,0,1,.762,1.34" transform="translate(-175.724 -142.526)" fill="none" stroke="#1d1d1b" stroke-linecap="round" stroke-linejoin="round" stroke-width="0.5"/>
            <path id="Path_1196" data-name="Path 1196" d="M177.3,143.545a1.686,1.686,0,0,0-.278,1.493,2.19,2.19,0,0,0,.939,1.223" transform="translate(-175.644 -142.459)" fill="none" stroke="#1d1d1b" stroke-linecap="round" stroke-linejoin="round" stroke-width="0.5"/>
          </g>
        </g>
        <g id="Group_4630" data-name="Group 4630" transform="translate(122.904)">
          <path id="Path_1197" data-name="Path 1197" d="M297.707,126.586c.014-3.864-2.446-8.685-4.512-11.951a.579.579,0,0,1-.131-.418.568.568,0,0,1,.211-.283c1.009-.879,1.861-3.352,2.882-2.252.895.964,1.749,3.843,2.028,5.089C298.5,118.172,299.317,120.917,297.707,126.586Z" transform="translate(-259.718 -100.367)" fill="#1d1d1b"/>
          <path id="Path_1198" data-name="Path 1198" d="M276.537,144.5c-.4,1.9-1.035,5.069-1.964,6.734a2.268,2.268,0,0,1-1.471,1.094s4.942,5.186,11.285,4.024c5.67-1.038,5.646-3.569,5.646-3.569a25.366,25.366,0,0,1-1.407-6.763Z" transform="translate(-261.016 -98.214)" fill="#fac0a2"/>
          <path id="Path_1199" data-name="Path 1199" d="M265.993,128.051c-.784-12.46,6.152-23.037,15.49-23.624s17.543,9.038,18.327,21.5c0,0,.964,17.134-7.876,21.632a14.876,14.876,0,0,1-15.4-.609A21,21,0,0,1,267.7,136.1a30.918,30.918,0,0,1-1.709-8.053" transform="translate(-261.482 -100.822)" fill="#fac0a2"/>
          <path id="Path_1200" data-name="Path 1200" d="M288.45,132.4a.734.734,0,0,0,.108.332.683.683,0,0,0,.449.213,4.395,4.395,0,0,0,2.877-.492c.131-.073.274-.181.272-.331,0-.131-.115-.23-.218-.313a9.025,9.025,0,0,1-2.807-3.974,1.921,1.921,0,0,0-.279-.593c-.991-1.231-.841,1.331-.816,1.636Q288.186,130.641,288.45,132.4Z" transform="translate(-260.046 -99.359)" fill="#da806c"/>
          <path id="Path_1201" data-name="Path 1201" d="M283.55,135.087a3.514,3.514,0,0,0,3.719,1.658" transform="translate(-260.336 -98.826)" fill="none" stroke="#1d1d1b" stroke-linecap="round" stroke-linejoin="round" stroke-width="0.5"/>
          <path id="Path_1202" data-name="Path 1202" d="M282.867,122.4a3.723,3.723,0,0,0-3.163,1.642" transform="translate(-260.587 -99.652)" fill="none" stroke="#1d1d1b" stroke-linecap="round" stroke-linejoin="round" stroke-width="0.5"/>
          <path id="Path_1203" data-name="Path 1203" d="M294.7,121.1a3.782,3.782,0,0,0-2.973-.024" transform="translate(-259.805 -99.757)" fill="none" stroke="#1d1d1b" stroke-linecap="round" stroke-linejoin="round" stroke-width="0.5"/>
          <path id="Path_1204" data-name="Path 1204" d="M291.812,111.8" transform="translate(-259.799 -100.341)" fill="none" stroke="#1d1d1b" stroke-width="0.5"/>
          <path id="Path_1205" data-name="Path 1205" d="M281.659,127.185c.093.7.544,1.222,1.009,1.161s.767-.681.675-1.383-.545-1.222-1.01-1.161S281.566,126.482,281.659,127.185Z" transform="translate(-260.461 -99.431)" fill="#1d1d1b"/>
          <path id="Path_1206" data-name="Path 1206" d="M292.552,124.695c.092.7.544,1.222,1.009,1.161s.767-.681.674-1.383-.544-1.222-1.009-1.161S292.459,123.992,292.552,124.695Z" transform="translate(-259.752 -99.593)" fill="#1d1d1b"/>
          <path id="Path_1207" data-name="Path 1207" d="M288.254,146.088s-3.334,1.5-9.265-.465c0,0,2.993,3.645,9.514,2.6Z" transform="translate(-260.633 -98.141)" fill="#1d1d1b"/>
          <path id="Path_1208" data-name="Path 1208" d="M302.113,106.967a20.2,20.2,0,0,1-24.532,12.216,4.046,4.046,0,0,0,2.758,1.953,14.43,14.43,0,0,1-10.449,2.042,6.6,6.6,0,0,0,1.339,1.69,15.32,15.32,0,0,1-3.2.61,7.216,7.216,0,0,1-2.535,4.375c-2.724-7.83-1.506-23.377,13.081-27.178,1.928-.5,3.988-.084,5.957.211l-1.674.963a10.24,10.24,0,0,0,7.809-2.809,12.114,12.114,0,0,1-.561,5.24,12.425,12.425,0,0,0,4.977-.357c.06,1.61-.215,3.2,1.7,3.342C298.458,109.388,300.823,107.913,302.113,106.967Z" transform="translate(-261.587 -101.041)" fill="#1d1d1b"/>
          <path id="Path_1209" data-name="Path 1209" d="M268.256,126.573l.815,7.445a5.63,5.63,0,0,1-5.666-.3,4.712,4.712,0,0,1-1.442-4.949,3.468,3.468,0,0,1,.7-1.267,3.429,3.429,0,0,1,2.1-1.027,13.889,13.889,0,0,1,3.487.094" transform="translate(-261.754 -99.391)" fill="#fac0a2"/>
          <g id="Group_4629" data-name="Group 4629" transform="translate(2.397 29.416)">
            <path id="Path_1210" data-name="Path 1210" d="M264,128.728a3.271,3.271,0,0,1,2.458.449,2.8,2.8,0,0,1,.7,1.372" transform="translate(-264.005 -128.661)" fill="none" stroke="#1d1d1b" stroke-linecap="round" stroke-linejoin="round" stroke-width="0.5"/>
            <path id="Path_1211" data-name="Path 1211" d="M265.546,129.716a1.684,1.684,0,0,0-.341,1.479,2.185,2.185,0,0,0,.887,1.262" transform="translate(-263.93 -128.592)" fill="none" stroke="#1d1d1b" stroke-linecap="round" stroke-linejoin="round" stroke-width="0.5"/>
          </g>
        </g>
        <g id="Group_4634" data-name="Group 4634" transform="translate(88.473 292.945)">
          <g id="Group_4633" data-name="Group 4633">
            <path id="Path_1212" data-name="Path 1212" d="M256.788,406.434c-.673-3-3.953-4.681-7-5.061s-6.178.116-9.189-.493a11.215,11.215,0,0,1-6.267-3.552,9.018,9.018,0,0,1-2.193-6.784c-1.819,1.419-2.5,3.865-2.665,6.167a11.979,11.979,0,0,0,.94,6.091,6.681,6.681,0,0,0,4.663,3.782,2.7,2.7,0,0,1-1.729.471,6.391,6.391,0,0,0,4.241,2.173,18.307,18.307,0,0,0,4.867-.226l-.95,1.536c2.379.04,4.53-1.289,6.75-2.141s5.074-1.107,6.676.653Z" transform="translate(-229.426 -375.155)" fill="#a7641a"/>
            <path id="Path_1213" data-name="Path 1213" d="M316.532,376.6c4.221-1.428,9.284.321,12.069,3.472a14.233,14.233,0,0,1,3.056,11.344c-.836,6.561-4.713,12.859-3.731,19.412a2.206,2.206,0,0,1-.048,1.314,2.235,2.235,0,0,1-1.259.921c-4.891,1.908-10.927-.316-14.191-4.067s-4.276-8.636-4.578-13.339a24.727,24.727,0,0,1,1.157-10.394C310.263,381.941,312.815,377.855,316.532,376.6Z" transform="translate(-224.33 -376.095)" fill="#a7641a"/>
            <path id="Path_1214" data-name="Path 1214" d="M259.58,430.984c.358,3.447,2.233,13.124,2.591,16.57a4.86,4.86,0,0,0,.882,2.772,4.282,4.282,0,0,0,1.535,1A19.619,19.619,0,0,0,273.355,453c.564-.022,1.266-.184,1.383-.737a7.357,7.357,0,0,0-3.163-3.476c-.2-4.082.828-12.319,1.493-16.353Z" transform="translate(-227.464 -372.525)" fill="#e1b57f"/>
            <path id="Path_1215" data-name="Path 1215" d="M261.839,434.811c4.4,2.744,9.716,3.734,14.9,3.688a82.519,82.519,0,0,0,15.4-2.089l.559-.219c-1.534,4.652-2.827,8.589-4.123,12.177a3.033,3.033,0,0,0-.266,1.474,2.971,2.971,0,0,0,1.077,1.584c2.619,2.431,5.817,4.787,9.38,4.5a1.1,1.1,0,0,0,.747-.273,1.133,1.133,0,0,0,.035-1.136,8.631,8.631,0,0,0-1.417-3.042,89.73,89.73,0,0,1,8.108-17.614l.22.817c1.483,5.74,4,10.687,6.461,16.078a2.575,2.575,0,0,0,.842,1.174,2.542,2.542,0,0,0,1.139.3,56.7,56.7,0,0,0,9.789.081c.785-.062,1.815-.421,1.723-1.2a1.411,1.411,0,0,0-.461-.769,11.189,11.189,0,0,0-4.408-3.067,29.745,29.745,0,0,1-1.605-9.757,266.769,266.769,0,0,1-.021-29.432s-.609-1.1-4.5-3.78-11-2.478-11-2.478a10.6,10.6,0,0,1-5.573,1.461c-8.029.473-16.075-.317-24.068-1.208-4.954-.552-10.142-1.114-14.78.715a17.741,17.741,0,0,0-5.5,3.539c-3.745,3.469-4.5,9.061-5.223,14.179-.26,1.827-.472,3.66-.593,5.5a217.242,217.242,0,0,0-.177,25.627l.088,1.3c-.037.634.662,1.029,1.261,1.243a36,36,0,0,0,10.474,1.908c.573.027,1.32-.083,1.437-.644a1.221,1.221,0,0,0-.382-.954,24.172,24.172,0,0,0-3.426-3.212,47.66,47.66,0,0,0,3.52-12.874c.081-.507.142-1.025.185-1.537Z" transform="translate(-228.203 -374.44)" fill="#e1b57f"/>
            <path id="Path_1216" data-name="Path 1216" d="M331.3,390.665a6.571,6.571,0,0,0,.755,2.149c.96,1.553,2.916,2.076,4.587,2.811,2.135.937,4.175,2.646,4.5,4.955a5.86,5.86,0,0,1-1.73,4.7,12.933,12.933,0,0,1-4.336,2.771,34.013,34.013,0,0,1-28.062-.649,20.6,20.6,0,0,1-4.637-2.986,15.609,15.609,0,0,1-5.136-11.14,16.875,16.875,0,0,1,4.287-11.548,13.772,13.772,0,0,1,3.562-2.918C311.262,375.38,327.631,372.756,331.3,390.665Z" transform="translate(-225.015 -376.08)" fill="#e1b57f"/>
            <path id="Path_1217" data-name="Path 1217" d="M290.208,434.693c1.382-4.191,2.754-8.334,3.922-11.566" transform="translate(-225.472 -373.036)" fill="none" stroke="#a7641a" stroke-width="0.75"/>
            <path id="Path_1218" data-name="Path 1218" d="M309.988,421.362c-1.845,2.509-5.806,8.469-7.405,11.141" transform="translate(-224.667 -373.15)" fill="none" stroke="#a7641a" stroke-width="0.75"/>
            <path id="Path_1219" data-name="Path 1219" d="M262.069,425.7c-.078,2.361-1.519,18.679-4.7,24" transform="translate(-227.608 -372.868)" fill="none" stroke="#a7641a" stroke-width="0.75"/>
            <path id="Path_1220" data-name="Path 1220" d="M338.72,399.313a1.619,1.619,0,0,1-2.338,1.108,2.885,2.885,0,0,1-1.194-1.071,4.087,4.087,0,0,1-.78-1.513,1.646,1.646,0,0,1,.33-1.481,2.152,2.152,0,0,1,1.98-.476S339.254,396.051,338.72,399.313Z" transform="translate(-222.6 -374.813)" fill="#1d1d1b"/>
            <path id="Path_1221" data-name="Path 1221" d="M261.007,432.779a22.822,22.822,0,0,0,11.383,3.551" transform="translate(-227.371 -372.408)" fill="none" stroke="#a7641a" stroke-width="0.75"/>
            <path id="Path_1222" data-name="Path 1222" d="M319.891,393.88a1.3,1.3,0,1,1-1.231-1.648A1.477,1.477,0,0,1,319.891,393.88Z" transform="translate(-223.705 -375.045)" fill="#1d1d1b"/>
            <path id="Path_1223" data-name="Path 1223" d="M328.9,406.724a11.181,11.181,0,0,1-9.446-6.456" transform="translate(-223.569 -374.522)" fill="none" stroke="#1d1d1b" stroke-linecap="round" stroke-linejoin="round" stroke-width="0.5"/>
            <g id="Group_4631" data-name="Group 4631" transform="translate(21.879 58.447)">
              <path id="Path_1224" data-name="Path 1224" d="M313.052,430.972q.161,1.022.321,2.046" transform="translate(-245.865 -430.972)" fill="none" stroke="#cb9c5c" stroke-linecap="round" stroke-linejoin="round" stroke-width="1"/>
              <path id="Path_1225" data-name="Path 1225" d="M311.429,433.872a8.724,8.724,0,0,0,.231,2.035" transform="translate(-245.97 -430.783)" fill="none" stroke="#cb9c5c" stroke-linecap="round" stroke-linejoin="round" stroke-width="1"/>
              <path id="Path_1226" data-name="Path 1226" d="M313.239,437.1a6.662,6.662,0,0,1,.207,1.892" transform="translate(-245.852 -430.574)" fill="none" stroke="#cb9c5c" stroke-linecap="round" stroke-linejoin="round" stroke-width="1"/>
              <path id="Path_1227" data-name="Path 1227" d="M291.476,436.222q-.246.868-.493,1.737" transform="translate(-247.3 -430.63)" fill="none" stroke="#cb9c5c" stroke-linecap="round" stroke-linejoin="round" stroke-width="1"/>
              <path id="Path_1228" data-name="Path 1228" d="M292.535,439.161q-.216.673-.432,1.345" transform="translate(-247.227 -430.439)" fill="none" stroke="#cb9c5c" stroke-linecap="round" stroke-linejoin="round" stroke-width="1"/>
              <path id="Path_1229" data-name="Path 1229" d="M290.5,441.028a3.237,3.237,0,0,1-.473,1.615" transform="translate(-247.362 -430.318)" fill="none" stroke="#cb9c5c" stroke-linecap="round" stroke-linejoin="round" stroke-width="1"/>
              <path id="Path_1230" data-name="Path 1230" d="M250.224,436.1a3.208,3.208,0,0,0-.124,2.165" transform="translate(-249.968 -430.638)" fill="none" stroke="#cb9c5c" stroke-linecap="round" stroke-linejoin="round" stroke-width="1"/>
              <path id="Path_1231" data-name="Path 1231" d="M251.843,439.695a3.247,3.247,0,0,1-.071,1.9" transform="translate(-249.851 -430.405)" fill="none" stroke="#cb9c5c" stroke-linecap="round" stroke-linejoin="round" stroke-width="1"/>
              <path id="Path_1232" data-name="Path 1232" d="M250.1,442.847l-.039,2.031" transform="translate(-249.962 -430.2)" fill="none" stroke="#cb9c5c" stroke-linecap="round" stroke-linejoin="round" stroke-width="1"/>
              <path id="Path_1233" data-name="Path 1233" d="M285.859,433.014l-1.381.619" transform="translate(-247.723 -430.839)" fill="none" stroke="#cb9c5c" stroke-linecap="round" stroke-linejoin="round" stroke-width="1"/>
              <path id="Path_1234" data-name="Path 1234" d="M283.729,431.86l-1.512.3" transform="translate(-247.87 -430.914)" fill="none" stroke="#cb9c5c" stroke-linecap="round" stroke-linejoin="round" stroke-width="1"/>
              <path id="Path_1235" data-name="Path 1235" d="M281.544,433.832a2.093,2.093,0,0,1-1.523.329" transform="translate(-248.013 -430.786)" fill="none" stroke="#cb9c5c" stroke-linecap="round" stroke-linejoin="round" stroke-width="1"/>
              <path id="Path_1236" data-name="Path 1236" d="M278.343,433.1a2.675,2.675,0,0,1-1.358.245" transform="translate(-248.211 -430.834)" fill="none" stroke="#cb9c5c" stroke-linecap="round" stroke-linejoin="round" stroke-width="1"/>
            </g>
            <path id="Path_1237" data-name="Path 1237" d="M316.186,408.51s-6.767.131-9.912-2.968l-.915,2.339a13.892,13.892,0,0,0,10.673,2.615Z" transform="translate(-224.486 -374.179)" fill="#fcca43"/>
            <path id="Path_1238" data-name="Path 1238" d="M313.592,379.224a9.541,9.541,0,0,1,1.257,4.43,12.027,12.027,0,0,1-.488,4.808c-1.273,3.694-4.962,6.227-5.975,10-.553,2.062-.233,4.24-.213,6.373s-.36,4.463-1.939,5.9a6.3,6.3,0,0,1-5.087,1.293c-4.306-.586-7.728-4-9.9-7.762a20.41,20.41,0,0,1-2.944-12.173,13.513,13.513,0,0,1,6.47-10.4c1.015-.563,2.112-.969,3.128-1.532,1.728-.956,3.2-2.357,5.016-3.132C305.939,375.732,311.682,376.215,313.592,379.224Z" transform="translate(-225.602 -376.078)" fill="#a7641a"/>
            <g id="Group_4632" data-name="Group 4632" transform="translate(76.692 27.64)">
              <path id="Path_1239" data-name="Path 1239" d="M304.544,402.481a2.455,2.455,0,0,1-.216,1.994" transform="translate(-301.246 -402.019)" fill="none" stroke="#c7893e" stroke-linecap="round" stroke-linejoin="round" stroke-width="2"/>
              <path id="Path_1240" data-name="Path 1240" d="M301.984,402.047a3.312,3.312,0,0,1-.482,2.287" transform="translate(-301.43 -402.047)" fill="none" stroke="#c7893e" stroke-linecap="round" stroke-linejoin="round" stroke-width="2"/>
              <path id="Path_1241" data-name="Path 1241" d="M303.245,405.708a2.858,2.858,0,0,1-1.811,2.08" transform="translate(-301.434 -401.809)" fill="none" stroke="#c7893e" stroke-linecap="round" stroke-linejoin="round" stroke-width="2"/>
            </g>
          </g>
          <path id="Path_1242" data-name="Path 1242" d="M264.881,406.862a9.973,9.973,0,0,0-1.764.652c-1.013.677-1.176,2.21-2.2,2.864a2.085,2.085,0,0,1-2.548-.4,2.776,2.776,0,0,1-.554-2.619,4.2,4.2,0,0,1,1.644-2.2,5.666,5.666,0,0,1,4.7-.887C265.416,404.658,266.734,406.08,264.881,406.862Z" transform="translate(-227.587 -374.274)" fill="#a7641a"/>
          <path id="Path_1243" data-name="Path 1243" d="M261.742,418.3a1.588,1.588,0,0,1-1.044.4,1.5,1.5,0,0,1-.717-.37c-1.128-.892-2.2-2.177-1.992-3.6.272-1.874,3.745-3.66,5.145-1.867.653.837-.034,1.708-.157,2.633C262.8,416.877,263.086,417.359,261.742,418.3Z" transform="translate(-227.569 -373.751)" fill="#a7641a"/>
          <path id="Path_1244" data-name="Path 1244" d="M255.982,412.792c-.2,1.028.414,2.223-.195,3.075a1.707,1.707,0,0,1-2.626-.247,4.9,4.9,0,0,1,.4-4.889c.431-.481,1.675-1.022,2.319-.64C256.963,410.733,256.154,411.917,255.982,412.792Z" transform="translate(-227.915 -373.892)" fill="#a7641a"/>
        </g>
        <path id="Path_1245" data-name="Path 1245" d="M216.276,412.37c-6.646,0-7.978-10.849-7.978-10.849-7.183-31.716-16.738-51.539-16.738-51.539.765,2.137,1.454,4.3,2.042,6.5,6.537,24.424,10.008,38.307,11.7,56.783a24.909,24.909,0,0,0,6.415-.083A32.376,32.376,0,0,0,216.276,412.37Z" transform="translate(-143.416 -84.848)" fill="#91ccb6" opacity="0.47" style="mix-blend-mode: multiply;isolation: isolate"/>
        <path id="Path_1246" data-name="Path 1246" d="M258.59,188.515c-.9,2.826-1.791,6.532-2.378,8.3" transform="translate(-139.21 -95.351)" fill="none" stroke="#222221" stroke-width="1"/>
        <path id="Path_1247" data-name="Path 1247" d="M308.722,193.9c-.293,3.056.119,11.223,0,14.291" transform="translate(-135.802 -95.001)" fill="none" stroke="#222221" stroke-width="1"/>
        <g id="Group_4635" data-name="Group 4635" transform="translate(101.836 112.319)">
          <path id="Path_1248" data-name="Path 1248" d="M303.857,215.517a10.918,10.918,0,0,0-.012,4.65" transform="translate(-237.964 -205.913)" fill="none" stroke="#3b658e" stroke-linecap="round" stroke-linejoin="round" stroke-width="1.5"/>
          <path id="Path_1249" data-name="Path 1249" d="M298.652,219.819a20.562,20.562,0,0,0-.007,3.737" transform="translate(-238.292 -205.634)" fill="none" stroke="#3b658e" stroke-linecap="round" stroke-linejoin="round" stroke-width="1.5"/>
          <path id="Path_1250" data-name="Path 1250" d="M302.728,227.157a10.374,10.374,0,0,0,.394,3.571" transform="translate(-238.022 -205.156)" fill="none" stroke="#3b658e" stroke-linecap="round" stroke-linejoin="round" stroke-width="1.5"/>
          <path id="Path_1251" data-name="Path 1251" d="M292.449,232.261a24.028,24.028,0,0,0,.141,3.228" transform="translate(-238.69 -204.824)" fill="none" stroke="#3b658e" stroke-linecap="round" stroke-linejoin="round" stroke-width="1.5"/>
          <path id="Path_1252" data-name="Path 1252" d="M288.675,222.77l.085,2.293" transform="translate(-238.935 -205.442)" fill="none" stroke="#3b658e" stroke-linecap="round" stroke-linejoin="round" stroke-width="1.5"/>
          <path id="Path_1253" data-name="Path 1253" d="M281.976,215.671a20.479,20.479,0,0,0,.34,3.143" transform="translate(-239.371 -205.903)" fill="none" stroke="#3b658e" stroke-linecap="round" stroke-linejoin="round" stroke-width="1.5"/>
          <path id="Path_1254" data-name="Path 1254" d="M280.939,230.745v3.143" transform="translate(-239.438 -204.923)" fill="none" stroke="#3b658e" stroke-linecap="round" stroke-linejoin="round" stroke-width="1.5"/>
          <path id="Path_1255" data-name="Path 1255" d="M271.814,223.248a16.2,16.2,0,0,0,0,3.483" transform="translate(-240.038 -205.411)" fill="none" stroke="#3b658e" stroke-linecap="round" stroke-linejoin="round" stroke-width="1.5"/>
          <path id="Path_1256" data-name="Path 1256" d="M266.952,217.267a21.811,21.811,0,0,0-.018,3.568" transform="translate(-240.354 -205.8)" fill="none" stroke="#3b658e" stroke-linecap="round" stroke-linejoin="round" stroke-width="1.5"/>
          <path id="Path_1257" data-name="Path 1257" d="M262.334,230.027l-.348,2.462" transform="translate(-240.671 -204.97)" fill="none" stroke="#3b658e" stroke-linecap="round" stroke-linejoin="round" stroke-width="1.5"/>
          <path id="Path_1258" data-name="Path 1258" d="M265.16,242.866a25.9,25.9,0,0,1-.068,2.974" transform="translate(-240.469 -204.134)" fill="none" stroke="#3b658e" stroke-linecap="round" stroke-linejoin="round" stroke-width="1.5"/>
          <path id="Path_1259" data-name="Path 1259" d="M276.611,241.271a12.555,12.555,0,0,1,.059,2.21" transform="translate(-239.72 -204.238)" fill="none" stroke="#3b658e" stroke-linecap="round" stroke-linejoin="round" stroke-width="1.5"/>
          <path id="Path_1260" data-name="Path 1260" d="M299.364,238.92a11.735,11.735,0,0,0,.422,2.8" transform="translate(-238.24 -204.391)" fill="none" stroke="#3b658e" stroke-linecap="round" stroke-linejoin="round" stroke-width="1.5"/>
          <path id="Path_1261" data-name="Path 1261" d="M291.868,211.046a7.232,7.232,0,0,0,.166,2.209" transform="translate(-238.729 -206.204)" fill="none" stroke="#3b658e" stroke-linecap="round" stroke-linejoin="round" stroke-width="1.5"/>
          <path id="Path_1262" data-name="Path 1262" d="M300.815,206.5a19.842,19.842,0,0,0-.259,2.973" transform="translate(-238.162 -206.5)" fill="none" stroke="#3b658e" stroke-linecap="round" stroke-linejoin="round" stroke-width="1.5"/>
          <path id="Path_1263" data-name="Path 1263" d="M278.338,207.138l-.029,2.548" transform="translate(-239.609 -206.458)" fill="none" stroke="#3b658e" stroke-linecap="round" stroke-linejoin="round" stroke-width="1.5"/>
          <path id="Path_1264" data-name="Path 1264" d="M264.15,207.257v2.718" transform="translate(-240.53 -206.451)" fill="none" stroke="#3b658e" stroke-linecap="round" stroke-linejoin="round" stroke-width="1.5"/>
          <path id="Path_1265" data-name="Path 1265" d="M319.008,206.816q.184,1.66.37,3.319" transform="translate(-236.962 -206.479)" fill="none" stroke="#3b658e" stroke-linecap="round" stroke-linejoin="round" stroke-width="1.5"/>
          <path id="Path_1266" data-name="Path 1266" d="M313.154,212.322a12.3,12.3,0,0,0,.35,2.8" transform="translate(-237.343 -206.121)" fill="none" stroke="#3b658e" stroke-linecap="round" stroke-linejoin="round" stroke-width="1.5"/>
          <path id="Path_1267" data-name="Path 1267" d="M317.943,216.948a10.285,10.285,0,0,0,.449,2.626" transform="translate(-237.031 -205.82)" fill="none" stroke="#3b658e" stroke-linecap="round" stroke-linejoin="round" stroke-width="1.5"/>
          <path id="Path_1268" data-name="Path 1268" d="M314.858,224.6l.491,2.3" transform="translate(-237.232 -205.323)" fill="none" stroke="#3b658e" stroke-linecap="round" stroke-linejoin="round" stroke-width="1.5"/>
          <path id="Path_1269" data-name="Path 1269" d="M320.836,224.044a13.435,13.435,0,0,1,.059,2.3" transform="translate(-236.843 -205.359)" fill="none" stroke="#3b658e" stroke-linecap="round" stroke-linejoin="round" stroke-width="1.5"/>
          <path id="Path_1270" data-name="Path 1270" d="M318.822,230.862l.4,3.146" transform="translate(-236.974 -204.915)" fill="none" stroke="#3b658e" stroke-linecap="round" stroke-linejoin="round" stroke-width="1.5"/>
          <path id="Path_1271" data-name="Path 1271" d="M315.8,236.408a4.329,4.329,0,0,0,.335,2.209" transform="translate(-237.173 -204.555)" fill="none" stroke="#3b658e" stroke-linecap="round" stroke-linejoin="round" stroke-width="1.5"/>
          <path id="Path_1272" data-name="Path 1272" d="M322.993,235.768a10.159,10.159,0,0,0,.4,2.042" transform="translate(-236.703 -204.596)" fill="none" stroke="#3b658e" stroke-linecap="round" stroke-linejoin="round" stroke-width="1.5"/>
          <path id="Path_1273" data-name="Path 1273" d="M249.918,211.061a8.958,8.958,0,0,0-.382,3.256" transform="translate(-241.482 -206.203)" fill="none" stroke="#3b658e" stroke-linecap="round" stroke-linejoin="round" stroke-width="1.5"/>
          <path id="Path_1274" data-name="Path 1274" d="M245.236,215.735a6.484,6.484,0,0,1-.358,2.113" transform="translate(-241.784 -205.899)" fill="none" stroke="#3b658e" stroke-linecap="round" stroke-linejoin="round" stroke-width="1.5"/>
          <path id="Path_1275" data-name="Path 1275" d="M242.378,210.883q-.129,1.721-.258,3.441" transform="translate(-241.963 -206.215)" fill="none" stroke="#3b658e" stroke-linecap="round" stroke-linejoin="round" stroke-width="1.5"/>
          <path id="Path_1276" data-name="Path 1276" d="M241.993,223.1a10.5,10.5,0,0,1-.02,2.681" transform="translate(-241.973 -205.42)" fill="none" stroke="#3b658e" stroke-linecap="round" stroke-linejoin="round" stroke-width="1.5"/>
          <path id="Path_1277" data-name="Path 1277" d="M247.769,223.277a5.172,5.172,0,0,1,.145,2.114" transform="translate(-241.596 -205.409)" fill="none" stroke="#3b658e" stroke-linecap="round" stroke-linejoin="round" stroke-width="1.5"/>
          <path id="Path_1278" data-name="Path 1278" d="M245.447,231.187a5.184,5.184,0,0,1-.068,2.3" transform="translate(-241.751 -204.894)" fill="none" stroke="#3b658e" stroke-linecap="round" stroke-linejoin="round" stroke-width="1.5"/>
          <path id="Path_1279" data-name="Path 1279" d="M248.645,234.968a7.178,7.178,0,0,1,.367,2.492" transform="translate(-241.539 -204.648)" fill="none" stroke="#3b658e" stroke-linecap="round" stroke-linejoin="round" stroke-width="1.5"/>
          <path id="Path_1280" data-name="Path 1280" d="M242.345,236.05a4.958,4.958,0,0,0,.381,2.489" transform="translate(-241.951 -204.578)" fill="none" stroke="#3b658e" stroke-linecap="round" stroke-linejoin="round" stroke-width="1.5"/>
        </g>
        <g id="Group_4636" data-name="Group 4636" transform="translate(37.358 96.602)">
          <path id="Path_1281" data-name="Path 1281" d="M214,192.913c-1.747-1.5-4.394-1.4-6.545-.586s-4.01,2.244-6.068,3.27c-3.337,1.664-7.493,2.189-10.735.348-1.034-.588-1.936-1.39-2.975-1.971a8.28,8.28,0,0,0-6.245-.728" transform="translate(-181.433 -191.743)" fill="none" stroke="#745976" stroke-linecap="round" stroke-linejoin="round" stroke-width="1"/>
          <path id="Path_1282" data-name="Path 1282" d="M214.129,198.492a9.9,9.9,0,0,0-9.384.75c-1,.665-1.871,1.509-2.865,2.184a10.55,10.55,0,0,1-10.813.482c-1.26-.7-2.363-1.661-3.638-2.336a9.448,9.448,0,0,0-5.828-.975l.84-.023" transform="translate(-181.422 -191.359)" fill="none" stroke="#745976" stroke-linecap="round" stroke-linejoin="round" stroke-width="1"/>
        </g>
      </g>
      <g id="Group_4639" data-name="Group 4639" transform="translate(47.567 427.235)">
        <path id="Path_1283" data-name="Path 1283" d="M163.794,467.312a98,98,0,0,0,7.831-17.444c2.22-6.608,3.427-14.737-1.323-19.84-3.894-4.182-10.607-4.612-15.939-2.558s-9.609,6.1-13.736,10.053a35.186,35.186,0,0,0-7.791-27.366c-2.905-3.451-6.759-6.441-11.245-6.91-5.693-.6-11.149,3.089-14.314,7.857s-4.492,10.488-5.76,16.069C98.7,418.75,94.1,408.841,85.251,408.1c-4.963-.416-9.772,2.534-12.69,6.571s-4.22,9.016-4.981,13.938a77.008,77.008,0,0,0-.322,21.237,14.66,14.66,0,0,0-20.249,18.531Z" transform="translate(-46.011 -403.183)" fill="#fcca43"/>
        <path id="Path_1284" data-name="Path 1284" d="M50.715,450.459a15.043,15.043,0,0,0-3.706,16.278l116.785-1.065a98,98,0,0,0,7.831-17.444c2.22-6.608,3.427-14.737-1.323-19.84.59,6.216-3.309,13.11-7.977,17.257s-10.841,6.337-17.05,7a41,41,0,0,1-22.988-4.3,17.8,17.8,0,0,1-32.581-2.45A24.439,24.439,0,0,1,71.57,458.882C63.912,459.949,55.948,456.152,50.715,450.459Z" transform="translate(-46.011 -401.543)" fill="#fcca43" opacity="0.34" style="mix-blend-mode: multiply;isolation: isolate"/>
        <g id="Group_4638" data-name="Group 4638" transform="translate(42.607 8.966)">
          <path id="Path_1285" data-name="Path 1285" d="M124.787,411.6a9.179,9.179,0,0,1,2.826,3.6" transform="translate(-83.493 -411.601)" fill="none" stroke="#e5b200" stroke-linecap="round" stroke-linejoin="round" stroke-width="1.5"/>
          <path id="Path_1286" data-name="Path 1286" d="M123.684,417.991a4.87,4.87,0,0,1,1.741,3.437" transform="translate(-83.565 -411.185)" fill="none" stroke="#e5b200" stroke-linecap="round" stroke-linejoin="round" stroke-width="1.5"/>
          <path id="Path_1287" data-name="Path 1287" d="M129.621,421.579a18.66,18.66,0,0,1,1.538,4.977" transform="translate(-83.179 -410.952)" fill="none" stroke="#e5b200" stroke-linecap="round" stroke-linejoin="round" stroke-width="1.5"/>
          <path id="Path_1288" data-name="Path 1288" d="M86.712,412.37a5.141,5.141,0,0,1,1.991,2.807" transform="translate(-85.97 -411.551)" fill="none" stroke="#e5b200" stroke-linecap="round" stroke-linejoin="round" stroke-width="1.5"/>
          <path id="Path_1289" data-name="Path 1289" d="M86.015,417.366a17.113,17.113,0,0,1,2.346,2.836" transform="translate(-86.015 -411.226)" fill="none" stroke="#e5b200" stroke-linecap="round" stroke-linejoin="round" stroke-width="1.5"/>
          <path id="Path_1290" data-name="Path 1290" d="M91.645,420.374a9.98,9.98,0,0,1,1.478,2.53" transform="translate(-85.649 -411.03)" fill="none" stroke="#e5b200" stroke-linecap="round" stroke-linejoin="round" stroke-width="1.5"/>
          <path id="Path_1291" data-name="Path 1291" d="M151.211,428.141a3.9,3.9,0,0,0-3.148,1.765" transform="translate(-81.979 -410.525)" fill="none" stroke="#e5b200" stroke-linecap="round" stroke-linejoin="round" stroke-width="1.5"/>
          <path id="Path_1292" data-name="Path 1292" d="M144.34,431.468l-2.5,2.091" transform="translate(-82.384 -410.309)" fill="none" stroke="#e5b200" stroke-linecap="round" stroke-linejoin="round" stroke-width="1.5"/>
          <path id="Path_1293" data-name="Path 1293" d="M148.855,433.264l-2.872,1.532" transform="translate(-82.114 -410.192)" fill="none" stroke="#e5b200" stroke-linecap="round" stroke-linejoin="round" stroke-width="1.5"/>
        </g>
      </g>
      <g id="Group_4642" data-name="Group 4642" transform="translate(413.618 354.937)">
        <g id="Group_4640" data-name="Group 4640">
          <path id="Path_1294" data-name="Path 1294" d="M449.4,360.438a15.115,15.115,0,0,0,2.223-4.422,4.563,4.563,0,0,0-5.864-5.873,15.138,15.138,0,0,0-4.731,2.41c.629-3.356,1.916-6.651,1.737-10.061s-2.507-7.093-5.921-7.19c-3.285-.094-5.686,2.994-7.281,5.866a66.1,66.1,0,0,0-4.1,8.872c-.926-3.318-2.815-7.129-6.25-7.377a6.13,6.13,0,0,0-5.209,2.884,18.049,18.049,0,0,0-2.266,5.77c-4.373-2.225-9.488-3.576-14.2-2.2s-8.623,6.161-7.71,10.983Z" transform="translate(-389.705 -335.3)" fill="#b49f00"/>
          <path id="Path_1295" data-name="Path 1295" d="M389.83,359.856l59.566.339a15.117,15.117,0,0,0,2.223-4.422,4.563,4.563,0,0,0-5.864-5.873,15.138,15.138,0,0,0-4.731,2.41c.629-3.356,1.916-6.651,1.737-10.061a9.065,9.065,0,0,0-.783-3.2,18.388,18.388,0,0,1-4.727,11.683c-2.854,3.2-7.666,4.845-11.616,3.186a12.511,12.511,0,0,1-15.986,2.162A57.392,57.392,0,0,1,389.83,359.856Z" transform="translate(-389.697 -335.056)" fill="#b49f00" opacity="0.24" style="mix-blend-mode: multiply;isolation: isolate"/>
        </g>
        <g id="Group_4641" data-name="Group 4641" transform="translate(1.999 3.081)">
          <path id="Path_1296" data-name="Path 1296" d="M431.717,338.193q-.5.748-1,1.5" transform="translate(-389.036 -338.193)" fill="none" stroke="#858a28" stroke-linecap="round" stroke-linejoin="round" stroke-width="1"/>
          <path id="Path_1297" data-name="Path 1297" d="M428.834,341.37a4.586,4.586,0,0,1-.828,1.718" transform="translate(-389.213 -337.986)" fill="none" stroke="#858a28" stroke-linecap="round" stroke-linejoin="round" stroke-width="1"/>
          <path id="Path_1298" data-name="Path 1298" d="M430.991,342.762a4.052,4.052,0,0,0-.624,1.248" transform="translate(-389.059 -337.896)" fill="none" stroke="#858a28" stroke-linecap="round" stroke-linejoin="round" stroke-width="1"/>
          <path id="Path_1299" data-name="Path 1299" d="M427.815,345.569l-.623,1.5" transform="translate(-389.266 -337.713)" fill="none" stroke="#858a28" stroke-linecap="round" stroke-linejoin="round" stroke-width="1"/>
          <path id="Path_1300" data-name="Path 1300" d="M416.361,345l-.646,1.111" transform="translate(-390.012 -337.75)" fill="none" stroke="#858a28" stroke-linecap="round" stroke-linejoin="round" stroke-width="1"/>
          <path id="Path_1301" data-name="Path 1301" d="M413.641,346.043q-.249.562-.5,1.124" transform="translate(-390.18 -337.682)" fill="none" stroke="#858a28" stroke-linecap="round" stroke-linejoin="round" stroke-width="1"/>
          <path id="Path_1302" data-name="Path 1302" d="M413.532,348.738q-.313.625-.624,1.248" transform="translate(-390.195 -337.507)" fill="none" stroke="#858a28" stroke-linecap="round" stroke-linejoin="round" stroke-width="1"/>
          <path id="Path_1303" data-name="Path 1303" d="M396.748,350.429c-.312.482-.721.64-1.043.965" transform="translate(-391.314 -337.397)" fill="none" stroke="#858a28" stroke-linecap="round" stroke-linejoin="round" stroke-width="1"/>
          <path id="Path_1304" data-name="Path 1304" d="M394.97,353.229l-1.09,1.162" transform="translate(-391.432 -337.215)" fill="none" stroke="#858a28" stroke-linecap="round" stroke-linejoin="round" stroke-width="1"/>
          <path id="Path_1305" data-name="Path 1305" d="M392.331,353.777l-.749,1.247" transform="translate(-391.582 -337.179)" fill="none" stroke="#858a28" stroke-linecap="round" stroke-linejoin="round" stroke-width="1"/>
        </g>
      </g>
    </g>
  </g>
</svg>
