<svg xmlns="http://www.w3.org/2000/svg" width="18" height="14" viewBox="0 0 18 14"><defs><style>.a{fill:#ff5e3a;}</style></defs><path class="a" d="M13.273,11a2.759,2.759,0,0,0,2.446-3,2.759,2.759,0,0,0-2.446-3,2.765,2.765,0,0,0-2.455,3A2.765,2.765,0,0,0,13.273,11ZM6.727,11A2.759,2.759,0,0,0,9.174,8,2.759,2.759,0,0,0,6.727,5,2.765,2.765,0,0,0,4.273,8,2.765,2.765,0,0,0,6.727,11Zm0,2C4.821,13,1,14.17,1,16.5V19H12.455V16.5C12.455,14.17,8.634,13,6.727,13Zm6.545,0a7.836,7.836,0,0,0-.794.05,4.482,4.482,0,0,1,1.612,3.45V19H19V16.5C19,14.17,15.179,13,13.273,13Z" transform="translate(-1 -5)"/></svg>