<svg xmlns="http://www.w3.org/2000/svg" width="60.665" height="60.658" viewBox="0 0 60.665 60.658">
  <g id="puppy" transform="translate(-0.001 0)">
    <g id="Group_4784" data-name="Group 4784" transform="translate(6.85 3.907)">
      <path id="Path_1308" data-name="Path 1308" d="M77.075,31.945v2.133a19.787,19.787,0,0,1-8.806,16.458,20.673,20.673,0,0,1-2.75-7.8v-.01l.421-1.047a23.686,23.686,0,0,1,7.211-9.726c.058,0,.117-.01.176-.01Zm0,0" transform="translate(-64.355 -31.945)" fill="#f0bc5e"/>
      <path id="Path_1309" data-name="Path 1309" d="M203.555,42.727v.01a20.673,20.673,0,0,1-2.75,7.8A19.787,19.787,0,0,1,192,34.077V31.944h3.748c.059,0,.118.01.176.01a23.686,23.686,0,0,1,7.211,9.726Zm0,0" transform="translate(-175.366 -31.944)" fill="#f0bc5e"/>
      <path id="Path_1310" data-name="Path 1310" d="M59,253.625a6.849,6.849,0,0,1-3,13v-2.456A20.023,20.023,0,0,1,59,253.625Zm0,0" transform="translate(-56 -226.512)" fill="#f0bc5e"/>
      <path id="Path_1311" data-name="Path 1311" d="M260.892,351.945v7.828l-.548,1.918a4.888,4.888,0,0,1,.548-9.745Zm0,0" transform="translate(-231.539 -312.807)" fill="#f0bc5e"/>
      <path id="Path_1312" data-name="Path 1312" d="M341.581,199.945a2.076,2.076,0,0,1,1.468,3.542l-.372.372.372.372a2.076,2.076,0,0,1-2.935,2.935l-1.35-1.35h-5.871l-1.35,1.35a2.076,2.076,0,0,1-2.935-2.935l.372-.372-.372-.372a2.076,2.076,0,0,1,2.935-2.935l1.35,1.35h5.871l1.35-1.35A2.072,2.072,0,0,1,341.581,199.945Zm0,0" transform="translate(-294.732 -179.397)" fill="#f0bc5e"/>
      <path id="Path_1313" data-name="Path 1313" d="M295.828,157.3v-4.9a12.723,12.723,0,1,1,5.807.944Zm0,0" transform="translate(-259.625 -116.203)" fill="#f0bc5e"/>
    </g>
    <path id="Path_1314" data-name="Path 1314" d="M232,103.945h1.957V105.9H232Zm0,0" transform="translate(-203.624 -91.231)"/>
    <path id="Path_1315" data-name="Path 1315" d="M104,103.945h1.957V105.9H104Zm0,0" transform="translate(-91.279 -91.231)"/>
    <path id="Path_1316" data-name="Path 1316" d="M58.67,50.6c-.186-.985-1.412-1.6-4.126-2.078a51.474,51.474,0,0,0-15.155,0,15.594,15.594,0,0,0-2.207.529V41.563a20.85,20.85,0,0,0-5.459-14.094,8.753,8.753,0,0,0,1.541-4.7,21.43,21.43,0,0,0,2.1-5.014,2.377,2.377,0,0,0,1.8.825,2.408,2.408,0,0,0,2.256-1.579l3.435-9.449A3.272,3.272,0,0,0,41,3.4L33.23.3a4.248,4.248,0,0,0-4.533.93L26.986,2.937,16.061,2.929l-1.7-1.7A4.25,4.25,0,0,0,9.823.294L2.058,3.4A3.273,3.273,0,0,0,.2,7.557l3.436,9.449a2.406,2.406,0,0,0,2.255,1.579,2.378,2.378,0,0,0,1.8-.825,21.431,21.431,0,0,0,2.1,5.014,8.752,8.752,0,0,0,1.541,4.7A20.85,20.85,0,0,0,5.871,41.563V51.621a2.549,2.549,0,0,1-1.416,2.291,4.5,4.5,0,0,0-2.5,4.042V58.7a1.959,1.959,0,0,0,1.957,1.957H14.678a2.939,2.939,0,0,0,2.935-2.935v-.978h7.828v.978a2.939,2.939,0,0,0,2.935,2.935H60.665V57.723Zm-11.7-.709a35.91,35.91,0,0,1,9.09.978,35.932,35.932,0,0,1-9.09.978,35.932,35.932,0,0,1-9.09-.978A35.909,35.909,0,0,1,46.967,49.9ZM30.081,2.608a2.267,2.267,0,0,1,2.422-.5L40.27,5.218A1.309,1.309,0,0,1,41.1,6.439a1.3,1.3,0,0,1-.079.449l-3.435,9.448a.461.461,0,0,1-.827.013l-1.23-3.074a24.793,24.793,0,0,0-6.68-9.431ZM5.472,16.337,2.037,6.889a1.315,1.315,0,0,1,.748-1.671l7.766-3.106a2.249,2.249,0,0,1,2.423.5l1.235,1.235a24.8,24.8,0,0,0-6.68,9.431L6.3,16.349a.462.462,0,0,1-.828-.011Zm3.559-1.548L9.346,14a22.82,22.82,0,0,1,6.671-9.116l11.023,0A22.821,22.821,0,0,1,33.708,14l.315.787A19.521,19.521,0,0,1,31.451,22l-.14.232V22.5a6.854,6.854,0,0,1-4.035,6.238,3.38,3.38,0,0,0,.121-.856v-.489H25.441v.489a1.468,1.468,0,0,1-2.935,0V25.272a3.311,3.311,0,0,0,1.384-.817l.86-.86a2.362,2.362,0,0,0-1.67-4.032h-3.1A2.362,2.362,0,0,0,18.3,23.6l.86.86a3.311,3.311,0,0,0,1.384.817V27.88a1.468,1.468,0,0,1-2.935,0v-.489H15.656v.489a3.38,3.38,0,0,0,.121.856A6.854,6.854,0,0,1,11.742,22.5v-.271l-.14-.233a19.528,19.528,0,0,1-2.571-7.205Zm11.517,8.283-.86-.86a.405.405,0,0,1,.287-.692h3.1a.405.405,0,0,1,.287.692l-.86.86A1.433,1.433,0,0,1,20.548,23.072Zm2.72,8.233-.361,1.8a1.409,1.409,0,0,1-2.762,0l-.36-1.8ZM17.613,54.787V45.981a3.914,3.914,0,0,1,7.828,0v8.806ZM27.4,57.723V45.981a5.871,5.871,0,0,0-11.742,0V57.723a.98.98,0,0,1-.978.978H3.914v-.748a2.547,2.547,0,0,1,1.416-2.29,4.5,4.5,0,0,0,2.5-4.042V41.563a18.913,18.913,0,0,1,4.792-12.608,8.767,8.767,0,0,0,5.16,2.309l.445,2.227a3.366,3.366,0,0,0,6.6,0l.445-2.227a8.767,8.767,0,0,0,5.16-2.309,18.913,18.913,0,0,1,4.792,12.608v9.173l-1.919,6.717L33.285,58.7H28.376a.98.98,0,0,1-.978-.978Zm31.311.978H35.225V57.86l1.52-5.32a13.608,13.608,0,0,0,2.643.681,49.113,49.113,0,0,0,15.156,0,13.59,13.59,0,0,0,2.643-.681l1.521,5.32Zm0,0" transform="translate(0 0)"/>
    <path id="Path_1317" data-name="Path 1317" d="M376,455.945h1.957V457.9H376Zm0,0" transform="translate(-330.012 -400.179)"/>
    <path id="Path_1318" data-name="Path 1318" d="M344,455.945h1.957V457.9H344Zm0,0" transform="translate(-301.926 -400.179)"/>
    <path id="Path_1319" data-name="Path 1319" d="M408,455.945h1.957V457.9H408Zm0,0" transform="translate(-358.098 -400.179)"/>
    <path id="Path_1320" data-name="Path 1320" d="M320,195a3.032,3.032,0,0,0,.614,1.838,3.054,3.054,0,0,0,4.6,4l1.063-1.063h5.06l1.063,1.063a3.054,3.054,0,0,0,4.6-4,3.054,3.054,0,0,0-4.6-4l-1.063,1.063h-5.06l-1.062-1.063A3.054,3.054,0,0,0,320,195Zm5.466.86h6.681l1.636-1.636a1.1,1.1,0,0,1,1.552,1.552l-1.062,1.063,1.063,1.063a1.1,1.1,0,0,1-1.552,1.552l-1.636-1.636h-6.681l-1.636,1.636a1.1,1.1,0,0,1-1.552-1.552l1.063-1.063-1.063-1.063a1.1,1.1,0,0,1,1.552-1.552Zm0,0" transform="translate(-280.861 -168.468)"/>
  </g>
</svg>
