<svg xmlns="http://www.w3.org/2000/svg" width="14.116" height="14.958" viewBox="0 0 14.116 14.958"><defs><style>.a{fill:#ff7455;stroke:#ff5e3a;}</style></defs><g transform="translate(0.514 0.5)"><g transform="translate(0 0)"><path class="a" d="M14.436,15.362a.436.436,0,0,1-.328-.723l3.053-3.49a.436.436,0,0,1,.657.574l-3.053,3.49A.437.437,0,0,1,14.436,15.362Z" transform="translate(-8.329 -6.202)"/><path class="a" d="M12.181,17.617a.435.435,0,0,1-.308-.128l-1.745-1.745a.436.436,0,0,1,.617-.617l1.745,1.745a.436.436,0,0,1-.308.745Z" transform="translate(-6.073 -8.457)"/><path class="a" d="M7.542,13.958a1.577,1.577,0,0,1-1.383-.829.46.46,0,0,1-.038-.063c-.086-.174-.221-.393-.372-.442a.776.776,0,0,0-.539.132.424.424,0,0,1-.072.03,1.554,1.554,0,0,1-1.6-.165A1.63,1.63,0,0,1,2.9,11.13a.414.414,0,0,1,0-.073c.088-.569-.024-.73-.568-.818a.445.445,0,0,1-.076-.02A1.594,1.594,0,0,1,1.075,9.132a1.641,1.641,0,0,1,.337-1.585.414.414,0,0,1,.048-.059c.393-.4.393-.613,0-1.017a.4.4,0,0,1-.049-.06,1.642,1.642,0,0,1-.336-1.584,1.594,1.594,0,0,1,1.19-1.087.39.39,0,0,1,.075-.019c.544-.089.656-.25.568-.819a.519.519,0,0,1,0-.074,1.629,1.629,0,0,1,.638-1.49,1.555,1.555,0,0,1,1.6-.164.475.475,0,0,1,.069.029.776.776,0,0,0,.539.132c.15-.049.285-.267.372-.442A.473.473,0,0,1,6.16.828a1.568,1.568,0,0,1,2.767,0,.422.422,0,0,1,.037.061c.087.174.222.393.373.442A.778.778,0,0,0,9.874,1.2a.427.427,0,0,1,.07-.029,1.555,1.555,0,0,1,1.6.164,1.632,1.632,0,0,1,.638,1.49.427.427,0,0,1-.005.074c-.088.569.024.73.568.818a.45.45,0,0,1,.076.019,1.594,1.594,0,0,1,1.19,1.087,1.643,1.643,0,0,1-.338,1.586.429.429,0,0,1-.048.058c-.393.4-.393.613,0,1.017a.479.479,0,0,1,.048.059,1.642,1.642,0,0,1,.337,1.585,1.593,1.593,0,0,1-1.19,1.088.387.387,0,0,1-.075.02c-.544.088-.656.249-.568.818a.444.444,0,0,1,.005.076,1.628,1.628,0,0,1-.638,1.488,1.553,1.553,0,0,1-1.6.164.468.468,0,0,1-.07-.029.779.779,0,0,0-.539-.132c-.151.048-.285.267-.373.442a.423.423,0,0,1-.037.062A1.579,1.579,0,0,1,7.542,13.958Zm-.673-1.345a.445.445,0,0,1,.036.061.7.7,0,0,0,1.274,0,.426.426,0,0,1,.035-.059,1.528,1.528,0,0,1,.851-.82,1.492,1.492,0,0,1,1.145.154.426.426,0,0,1,.067.028.691.691,0,0,0,.742-.055.762.762,0,0,0,.287-.735.408.408,0,0,1-.005-.072,1.375,1.375,0,0,1,1.226-1.724.418.418,0,0,1,.071-.017.725.725,0,0,0,.578-.5.771.771,0,0,0-.185-.773.407.407,0,0,1-.046-.056,1.4,1.4,0,0,1,0-2.124.388.388,0,0,1,.045-.055.772.772,0,0,0,.185-.773.724.724,0,0,0-.577-.5.428.428,0,0,1-.072-.018A1.376,1.376,0,0,1,11.3,2.841a.482.482,0,0,1,.005-.071.763.763,0,0,0-.287-.736.69.69,0,0,0-.742-.055.444.444,0,0,1-.067.028,1.5,1.5,0,0,1-1.145.154,1.526,1.526,0,0,1-.852-.82.452.452,0,0,1-.034-.058.7.7,0,0,0-1.274,0,.487.487,0,0,1-.037.062,1.529,1.529,0,0,1-.85.818,1.5,1.5,0,0,1-1.146-.155.481.481,0,0,1-.066-.028.692.692,0,0,0-.742.055.764.764,0,0,0-.287.736.471.471,0,0,1,.005.07A1.377,1.377,0,0,1,2.556,4.567a.429.429,0,0,1-.072.018.726.726,0,0,0-.578.5.77.77,0,0,0,.185.773.42.42,0,0,1,.047.057,1.4,1.4,0,0,1,0,2.122.377.377,0,0,1-.046.056.771.771,0,0,0-.185.773.726.726,0,0,0,.578.5.4.4,0,0,1,.072.018,1.375,1.375,0,0,1,1.224,1.726.421.421,0,0,1-.005.07.763.763,0,0,0,.287.735.69.69,0,0,0,.743.055.44.44,0,0,1,.068-.028A1.494,1.494,0,0,1,6.018,11.8,1.527,1.527,0,0,1,6.869,12.613Z" transform="translate(-0.998)"/></g></g></svg>